<?xml version="1.0" standalone="no"?>
<!DOCTYPE svg PUBLIC "-//W3C//DTD SVG 20010904//EN"
 "http://www.w3.org/TR/2001/REC-SVG-20010904/DTD/svg10.dtd">
<svg version="1.0" xmlns="http://www.w3.org/2000/svg"
 width="512.000000pt" height="512.000000pt" viewBox="0 0 512.000000 512.000000"
 preserveAspectRatio="xMidYMid meet">
<metadata>
Created by potrace 1.11, written by Peter Selinger 2001-2013
</metadata>
<g transform="translate(0.000000,512.000000) scale(0.100000,-0.100000)"
fill="#000000" stroke="none">
<path d="M1637 4839 c-229 -23 -428 -123 -622 -314 -121 -118 -205 -226 -290
-370 l-53 -90 -186 -78 c-106 -45 -186 -84 -186 -92 0 -7 57 -55 128 -106 70
-51 131 -95 135 -99 4 -4 -51 -44 -123 -89 -71 -45 -130 -89 -130 -97 0 -8 68
-48 169 -99 l169 -84 12 -58 c99 -478 395 -979 750 -1266 225 -181 408 -272
800 -396 69 -21 -289 6 -580 44 -427 57 -874 158 -1277 290 l-222 72 -46 -125
c-25 -69 -44 -127 -41 -129 11 -11 312 -110 466 -154 96 -27 179 -51 184 -52
5 -2 -27 -24 -71 -49 -103 -60 -357 -231 -507 -342 l-117 -86 61 -78 c33 -42
71 -90 84 -107 l24 -30 40 30 c22 17 82 62 134 101 199 152 453 309 659 409
l117 56 138 -25 c474 -86 896 -121 1469 -121 506 0 856 24 1315 90 90 13 166
22 168 21 4 -5 -77 -106 -123 -151 -64 -64 -159 -133 -248 -180 -129 -69 -260
-99 -557 -130 -372 -38 -547 -92 -716 -219 -59 -44 -185 -178 -184 -195 0 -3
50 -39 110 -80 l109 -74 73 75 c109 111 224 164 419 193 56 9 103 14 105 12 2
-2 -69 -128 -127 -223 l-19 -31 115 -67 c64 -37 119 -64 124 -61 5 2 64 99
130 214 l122 209 62 11 c107 21 208 51 290 87 175 77 394 251 507 404 49 66
140 232 140 257 0 6 34 19 78 28 107 23 386 92 450 111 39 11 52 20 48 30 -3
8 -22 67 -42 130 -33 106 -38 115 -58 110 -121 -35 -458 -114 -601 -141 -467
-88 -1093 -157 -1407 -154 l-123 1 65 13 c352 67 660 227 933 485 l95 90 69 0
c118 0 333 20 438 41 306 61 510 178 560 320 l15 41 -28 -7 c-280 -72 -502
-42 -759 101 l-64 36 73 77 c122 128 225 289 317 498 l50 112 -32 5 c-18 2
-73 9 -122 15 -252 30 -562 147 -907 342 -324 184 -491 265 -671 324 l-99 32
-84 123 c-120 174 -164 228 -234 294 -197 182 -434 294 -661 311 -41 3 -85 7
-99 9 -14 1 -60 -1 -103 -5z m-305 -749 c116 -33 166 -181 93 -276 -103 -135
-317 -64 -317 105 0 75 39 134 112 165 42 18 63 19 112 6z m1367 -179 c135
-45 316 -134 636 -310 444 -245 642 -333 808 -362 38 -6 84 -9 103 -6 19 3 34
4 34 1 0 -13 -128 -237 -166 -290 -128 -180 -313 -305 -542 -365 -111 -29
-335 -36 -467 -15 -580 96 -980 547 -924 1046 21 187 78 286 187 327 65 24
220 12 331 -26z"/>
</g>
</svg>
