<?xml version="1.0" standalone="no"?>
<!DOCTYPE svg PUBLIC "-//W3C//DTD SVG 20010904//EN"
 "http://www.w3.org/TR/2001/REC-SVG-20010904/DTD/svg10.dtd">
<svg version="1.0" xmlns="http://www.w3.org/2000/svg"
 width="560.000000pt" height="560.000000pt" viewBox="0 0 560.000000 560.000000"
 preserveAspectRatio="xMidYMid meet">
<metadata>
Created by potrace 1.14, written by Peter Selinger 2001-2017
</metadata>
<g transform="translate(0.000000,560.000000) scale(0.100000,-0.100000)"
fill="#000000" stroke="none">
<path d="M1449 5346 c-2 -2 -25 -7 -51 -10 -62 -8 -58 -7 -188 -61 -146 -59
-309 -174 -475 -334 -94 -90 -221 -233 -280 -316 -11 -15 -27 -35 -36 -44 -8
-9 -26 -32 -39 -51 -13 -19 -27 -37 -30 -40 -14 -12 -150 -220 -150 -229 0 -6
-4 -11 -8 -11 -12 0 -70 -120 -77 -158 -10 -57 13 -87 74 -97 29 -4 145 33
282 91 117 50 381 147 432 160 22 5 37 9 127 34 41 11 89 22 105 25 17 3 43 8
58 11 130 27 361 24 388 -4 7 -6 11 -31 24 -127 20 -144 27 -861 11 -1105 -12
-201 -21 -306 -31 -380 -3 -19 -8 -55 -10 -80 -3 -25 -10 -72 -16 -105 -6 -33
-12 -71 -14 -85 -2 -14 -6 -36 -9 -50 -3 -14 -9 -41 -12 -60 -3 -19 -15 -66
-26 -105 -10 -38 -21 -77 -23 -85 -8 -35 -52 -136 -125 -286 -104 -213 -156
-324 -165 -354 -4 -14 -11 -29 -15 -35 -5 -5 -24 -57 -43 -115 -31 -92 -40
-130 -62 -240 -7 -36 -7 -168 0 -215 32 -206 191 -397 403 -485 80 -34 117
-41 197 -41 218 0 412 142 554 405 16 30 27 57 24 60 -4 3 -2 6 4 6 9 0 14 10
28 55 2 6 11 28 20 49 9 22 19 47 21 55 2 9 8 32 13 51 28 99 36 139 56 270
19 130 23 300 11 595 -9 234 -15 435 -21 665 -3 107 -8 287 -10 400 -8 309
-22 885 -29 1253 l-2 87 429 0 429 0 -6 -87 c-4 -49 -8 -108 -11 -133 -2 -25
-7 -76 -10 -115 -2 -38 -7 -97 -10 -130 -2 -33 -7 -100 -10 -150 -3 -49 -7
-126 -10 -170 -3 -44 -7 -136 -10 -205 -2 -69 -5 -125 -5 -125 -5 0 -12 -347
-13 -625 0 -313 4 -496 17 -680 12 -162 16 -208 21 -247 3 -24 7 -62 10 -85 3
-24 7 -50 10 -58 2 -8 7 -43 10 -77 7 -72 24 -178 39 -238 15 -58 20 -76 33
-115 28 -83 57 -155 72 -179 9 -13 16 -29 17 -35 1 -7 29 -52 62 -101 156
-229 350 -358 637 -421 34 -8 137 -16 200 -16 145 -1 279 22 415 69 81 28 245
106 271 129 8 8 20 14 25 14 5 0 21 11 36 25 15 14 30 25 33 25 15 0 123 101
183 170 245 286 308 675 155 960 -64 119 -168 192 -221 154 -18 -13 -20 -23
-18 -115 5 -185 -25 -270 -135 -378 -75 -75 -149 -122 -247 -159 -55 -21 -85
-25 -172 -26 -125 -1 -144 3 -236 49 -74 36 -157 114 -212 198 -15 23 -29 44
-32 47 -18 16 -89 184 -121 285 -22 70 -65 276 -74 355 -4 30 -8 66 -10 80
-25 187 -25 763 0 995 3 22 7 69 10 105 3 36 8 81 10 100 2 19 6 64 10 100 3
36 8 72 10 80 3 8 7 36 9 61 6 58 17 137 22 164 3 11 7 36 9 55 3 19 8 51 11
70 4 19 8 44 9 55 2 11 6 35 9 53 3 17 8 44 11 60 2 15 9 52 15 82 7 30 14 69
17 85 2 17 8 33 12 37 3 4 227 8 496 9 391 1 501 4 545 15 169 45 290 158 340
319 7 22 15 49 19 60 8 26 6 209 -3 255 -21 103 -69 214 -113 257 -40 39 -101
80 -153 104 l-55 24 -1831 3 c-1007 1 -1832 0 -1835 -2z"/>
</g>
</svg>
