<?xml version="1.0"?><svg version="1.2" baseProfile="tiny-ps" viewBox="0 0 300 300" xmlns="http://www.w3.org/2000/svg" xmlns:xlink="http://www.w3.org/1999/xlink"><title>Thomas J. Park/Harvard Medical School</title><g><g fill="#e29762" transform="matrix(.1 0 0 -.1 0 300)"><path d="M0 1500V0h3000v3000H0V1500z"/></g><g fill="#d16634" transform="matrix(.1 0 0 -.1 0 300)"><path d="M0 1500V0h3000v3000H0V1500zm2081 900 63-70 8 13 8 12v-68l20 18c11 10 20 24 20 31s4 15 9 18l9 6 36-38c57-57 85-103 116-188 16-43 28-79 27-80-5-6-97 20-97 27 0 5-21 21-47 36l-48 28h-153l-44-30-43-31-3-23-4-24 19 8c51 21 110 35 147 34l41-1-55-12c-30-7-73-21-94-31l-40-19-49-49-48-48-11-30-10-29h-47c-25 0-61-4-79-9l-32-10 5 10 6 9h-10c-6 0-11 7-11 15s-16 32-35 54l-35 39-50 21c-28 12-78 28-113 36l-62 14 83-6 82-6-6 19c-4 11-14 27-22 36l-14 17-55 11-54 12-42-6-42-6 82 34c66 27 134 58 204 92 3 2 6-3 6-11s-2-13-4-11c-3 2-14-5-25-16s-18-22-15-24c2-2 31 4 65 15l61 19 48 35c61 45 92 78 138 147l37 55-7-25c-4-14-20-47-37-74l-29-50 16 14c23 19 62 89 81 143l16 47 28-15c16-8 57-46 91-85zm220-370c30-6 67-15 83-22l28-11-4-114-4-113h7c4 0 10-21 14-47s16-69 26-96l20-50-23-25c-41-46-62-60-113-76l-50-15h-70l-70-1-54 17-55 17-42 40-41 41-23 60-23 60-1 70v70l13 25c23 41 55 68 112 93 30 13 65 29 79 36l25 11-60-3-60-4 35 15c71 29 167 38 251 22zm-841-125 25-15-30 7c-16 4-58 7-92 6l-63-1 6 9 5 9h62l62-1 25-14zm9-66c20-11 45-32 56-47l20-27v-57l-1-57-29-32c-17-18-24-29-18-25 7 4 21 9 31 11l19 3v-11c0-7 3-22 7-34l7-22-44-45-45-45-46 14c-25 8-46 12-46 9s-6-2-12 3c-7 4-15 8-18 9-16 3-47 20-58 31-8 7-17 11-22 8s-12 0-16 6l-7 12 13-8 13-8-7 11c-4 7-14 12-22 12h-15l7-12 8-13-15 12c-8 6-28 13-45 16s-41 10-54 17l-22 12 7-13 8-12-19 8c-10 4-27 8-36 9h-17l5 8c3 4 1 8-4 8-10 0-30 45-31 70 0 8-3 29-6 45l-5 30 8-19 9-20 6 11 7 10 24-2c13-2 32-7 42-13 11-5 27-8 37-7l17 3v-14c0-8 4-14 9-14s27-18 49-40 46-40 53-40h14l-31 19-32 19-12 36-11 35 10 35c13 49 45 90 83 109l33 17h107l37-21zm1011-90c0-5-4-9-10-9-5 0-10 7-10 16v15l10-6c6-3 10-10 10-16zm-645-21c8-13 20-40 26-61l10-37 28-33c36-41 54-75 48-91l-5-13-44-1-43-2-40 14-40 14-10 19c-5 10-14 21-19 24l-9 7 6 22 6 22-23-4-23-5 4 36c10 69 43 110 90 111h22l16-22zm686-249 22-71-5-93-5-93-26-44c-14-24-36-52-49-63l-23-20-34-3c-19-2-44-10-56-18s-24-12-27-9-11-1-18-10c-7-8-21-15-31-15h-19v-25l-9 14-8 13-7-11-7-11-10 5-9 6v-24l-7 6-6 7-20-17-20-18 8 15 9 15-20-15c-10-8-22-19-25-23-3-5-9-8-13-7-15 4-66-12-66-21v-9l-22 1c-13 1-35-3-50-9-16-6-28-9-28-6 0 2-13-2-28-10l-28-14-14 8c-8 4-42 11-75 15l-60 7-31 18-32 18-12-11-13-12 7 13 7 12-33 30-33 31-23-6-24-6 8 12 7 12-12-7-12-8-16 14-17 13 8-12c9-16 4-16-28 0l-26 14 8 8 7 8-15-5c-8-3-25-8-37-12l-23-7-1 18-1 18-5-17-4-18-18 10-18 9-7-6-6-6v11c0 7-3 11-7 10-5-2-19 5-33 15-13 9-20 17-15 17 6 0 2 7-8 15l-19 14 7 22 7 22-13-9-14-8 14 17 13 17h-34l6 15 5 15h-30l13 14c7 8 14 13 16 11 4-3 23 13 67 55 18 17 83 46 125 55 8 2 16 4 18 5 1 2 5 3 10 5 27 7 60 25 71 39 7 9 20 16 28 16h14l-3-17-4-18 28-27 28-28 47-1c86-2 107 2 174 33l66 30 22 39 22 39 29-20c61-43 156-66 313-74l48-3-5 14-5 13h52l-6-7-7-6 18-13c23-18 29-17 35 6l5 20h-7c-4 0-12-5-18-11l-10-10-6 21-5 21 17-6c10-3 25-3 34 1l16 6-6 28-5 29 23 30c13 16 25 30 26 30 1 1 12-31 24-70zm-522 407-36-25-17-41-16-40v-90h21l-6-9-5-9 26-21 27-21h76l27 23 27 24 1 52 1 53-33 29-32 29h-48l-34-27-33-28 16 25c9 14 31 35 49 48l33 22h80l43-25 42-25 17-45 18-45-6-42-6-43 11 18 10 19v117l-18 31-19 32-37 19-37 19h-106l-36-24zm89-107c-2-6-8-10-13-10s-11 4-13 10l-4 11h34l-4-11zm165-267-22-17 9-15 10-15v34l14-5 13-5 6 20c6 25-1 26-30 3zm-880 303-33-14-20-33-21-33 5-35 5-35 31-27 30-28h66l23 16c13 9 29 31 37 49l13 32-10 37-10 36-21 20c-12 11-25 20-29 20s-13 2-21 5c-7 2-28-2-45-10zm87-51v-16l-12 4c-6 2-14 10-16 16l-4 12h32v-16zm916-401-7-18 12 12c7 7 10 15 7 18s-9-2-12-12zm-988-63-29-30 3-17 4-18 19 2 19 1 26-18c67-47 194-75 340-74l85 1 60 17c33 10 75 26 93 37 18 10 43 19 55 19s27 4 34 8l12 8-5 21c-10 37-57 40-69 4-3-10-18-27-35-39l-29-22-58-15-58-16-60 3-60 2-17 14-17 14-12-8-12-7 6 10 7 11-14 5-14 5-11-11-12-12 3 14 3 13-20 4c-11 1-21 8-23 13-2 6-12 11-22 11h-19l-10 18c-6 9-11 13-11 9 0-12-30 19-30 31v10l-17-2c-10-2-31 1-47 5l-28 8-30-29z"/></g><g fill="#ae4724" transform="matrix(.1 0 0 -.1 0 300)"><path d="M0 1500V0h3001l-2 380-2 380-11-9-12-10 1 44 1 44-20 6-21 5 19 15c10 8 23 12 27 9l8-5-4 33-4 32 10 12 10 13-3 38-4 38h-29l2-12c2-7-2-13-7-13h-10v-40h-21l6 9 5 10-10 6-10 6 22 19c13 11 19 19 14 20h-9l17 19 18 20-6 19-7 20-24 5-25 4 10-13 11-12-23 6-23 5 13-16 13-16-28-15-29-14-1 20c-1 12 3 30 8 41l11 19-11-6-11-7v13l-1 13-12-20-12-20h-30l-5 19-5 19-18-17-18-18-13 5-14 6-23-25c-12-13-25-22-27-19-3 3-11 0-19-6-7-6-13-8-13-4 0 5-10 0-22-11l-22-19 18 29 18 29-15-6-16-6-6 9-6 10h40l-5 15-6 15-9-6-9-5v22l-9-6-10-5-7 11-7 12 11-7 12-7v38l-18-2c-9 0-22-4-28-7l-10-7-2 24c-1 13 5 39 13 57 7 19 12 43 10 54-2 10-4 24-5 29-1 6-8-18-15-51-7-34-25-87-40-118l-26-56-50-55c-50-54-104-94-137-100-9-2-19-4-22-5s-8-2-12-1c-5 0-8-3-8-9s-3-9-7-8c-5 1-31-4-59-11-29-7-58-13-65-14-8-2-20-6-26-10-7-5-13-6-13-3s-21-2-47-10c-27-8-61-17-78-19-16-3-43-7-60-10-38-8-175-7-217 0-57 10-269 74-317 96-25 11-56 21-68 21-13 0-23 4-23 8s-15 11-34 14l-35 7-53 36c-29 20-62 45-73 56l-20 20 14-8 14-8-7 11c-4 7-13 12-21 12h-14l-6 21c-4 11-9 18-12 16-2-3-15 4-29 15l-23 21 5 9 6 9-24 19-23 19 13 1h13l-6 10-6 10-11-6-11-7 7 11 6 11-16 9-16 9 13 21 14 22-23 22-23 23 6-16 6-17-10-7-11-6v14c0 8-7 20-15 27-9 7-15 20-14 29 3 29-1 37-18 38-10 1-27 4-38 6-11 3-27 6-35 6l-15 1 14 9 13 8-12 8-11 7 14 16c8 10 15 25 16 35 3 39 5 47 12 47 4 0 18 18 30 40 13 22 26 40 30 40s10 11 13 24l6 24 35 21 35 20 15-5 15-6v-24c0-13 10-53 22-89l21-66 40-45 40-45-44 1c-59 1-79-2-79-12v-8h29c17 0 32-4 35-9 9-14 103-40 181-50l70-9 69 4 70 5 45 20c25 11 64 32 85 47l39 27 4-10c2-5 9-21 16-34l12-25 32-19 33-19 63 1h64l29 11c34 13 97 60 91 67-3 2-15-1-27-7l-23-12-86 23c-47 12-98 28-113 35l-26 14 11 31 12 32-12 4-11 4 19 54c10 30 19 65 19 77 0 43 35 68 93 68h35l10-12c5-7 17-40 27-73l17-60 32-45c18-25 37-58 44-73l12-28 9 5 9 6 6-16 6-15 9 6 10 5 5-9c4-5 28-17 55-26l49-16h169l58 22 59 22 46 47 45 46 23 65 22 64 7 78 6 78 19 10 18 10v59l-27 11c-16 5-33 11-40 14l-11 4 24 82c13 46 24 94 25 108v26l9-20 8-20 7 29 8 28-6 77-6 76-15 43c-16 43-16 45-16 62 0 18-128 156-197 212l-68 56-50 20c-28 10-59 22-70 27-11 4-31 10-45 12s-29 9-35 15l-10 11 30-6c17-3 38-9 49-13l18-7-11 20c-6 12-24 33-42 47l-31 26h-36c-20 0-48 3-61 7l-24 6 6-17 7-17-20 3c-12 2-21 8-22 13-1 6-8 15-16 21l-15 11 13 8 13 8-7-11-7-12h33l-6 16-6 17 11 13c6 8 14 12 18 10l7-5v70l-216-2-215-2-19-9-18-10 6 11 7 11h-170l-8-14c-4-7-18-17-30-20l-23-7v9c0 5 10 14 23 20l22 10-672 1-673 1V1500zm1954 1455 5-14-20 2-19 1v35l14-5c8-3 17-12 20-19zm-74 5v-10h-35l15 10c19 12 20 12 20 0zm-673-6c-3-3-12-4-19-1l-13 5 19 1c11 1 17-2 13-5zm398-4 6-10h-10c-5 0-13 5-16 10l-6 10h10c5 0 13-4 16-10zm300 0 6-10h-10c-6 0-11 5-11 10 0 6 2 10 4 10 3 0 8-4 11-10zm108-461c23-12 62-37 86-57l43-35 14-32 13-32-6-24-6-24 15 13c9 7 21 26 28 43l13 30 11-4c6-2 33-30 59-63 53-65 102-159 112-216l7-38h-7c-4 0-26 5-49 12l-41 12-32 27-33 28-42 12-43 11-48-6-48-5-42-23-42-23-3-23c-2-12-2-22 0-22s23 6 48 14c25 7 74 17 110 20l65 7-15-10c-8-6-27-11-42-11s-53-10-84-21l-57-22-42-38-41-38-24-51-24-50-46 6-46 6-37-10-36-10-22 45-22 45-39 28c-49 36-118 59-206 70l-67 9 103-3 102-3v37l-22 14c-13 8-44 20-70 25l-48 11-68-10-68-9-55-25-54-24-25-27c-14-15-41-37-60-50-19-12-51-38-70-58l-35-36-25-3-25-3-3 31-3 32 26 26c14 14 51 43 83 64l57 39 75 25c41 15 115 34 164 43l90 16 90 44 91 43 58 52 57 52v-15c0-8-14-33-31-56l-30-42-37-22-37-22 19-3 18-4 74 37 74 36 50 50c28 28 64 74 80 102l30 52v-20c0-12-8-37-19-58-10-20-15-34-10-31 14 8 46 75 54 114 12 59 10 58 68 29zm355-474 42-17v-32c0-17 5-86 9-153l9-122 11-18 10-18 1 47v47l16 15c8 9 12 16 8 16s0 6 11 13l18 14-8 13-8 13 13-8 13-8-6-77-6-78-17-43c-25-64-50-96-97-123l-42-25-68-11-69-11-36 7c-20 3-59 13-86 21l-49 16-37 33-37 34-28 62-29 63v160l18 35c10 19 30 50 44 69l25 33 44 20c24 10 62 23 86 28l42 9 81-4 81-4 41-16zm-871-40c87-26 163-95 163-149v-21l-21 35c-23 39-59 71-71 64-4-3-8-1-8 4s-11 14-25 20l-24 11-7-11-7-11 11 7 12 7v-22l9 5 8 6 19-26c11-15 25-32 32-39 6-8 12-18 12-22 0-5 8-18 18-29 9-10 23-36 30-57l14-39-6-34-7-34h-18l5-15 6-15h-23l5-9 6-9-33-44c-42-54-86-84-155-104l-55-16-87 4-86 4-55 31-54 30-32 42-33 42-16 56-16 57 6 60 6 60 28 49 28 50 56 2c31 2 61 6 67 9l10 6 6-10 6-10 10 6c5 3 7 9 5 13l-5 7 27 2c14 1 28 5 31 10 3 4 12 7 20 7s16 5 18 11l3 10-45-1-45-2v16h104l103 1 50-15zm-304-16c-24-11-44-19-45-18-2 1-13-3-25-10-13-6-23-9-23-6 0 9 103 55 120 54l15-1-42-19zm1647-884 12-15h-10c-6 0-12 6-15 13l-5 12-11-28-11-28-11 7-11 7 9 6c5 3 12 14 16 24 8 21 21 22 37 2zm-50-7c0-4-7-8-15-8s-15 4-15 8c0 5 7 9 15 9s15-4 15-9zm-203-56c-9-2-15-7-13-11 3-4 1-13-3-20l-9-13-21 7-21 6v25l21 1c12 1 27 7 32 12l10 10 11-7 11-7-18-3zm273 4c0-2-8-10-17-17l-18-14 14 18c13 16 21 21 21 13zm50-6v-9l-15 5c-8 4-15 8-15 10s7 4 15 4 15-4 15-10zm-258-6c4-3 0-17-8-32l-13-26 11-13 11-13 14 11c19 17 24 7 10-21-18-35-29-34-72 7l-40 38 27 9 28 10 6 18c5 18 16 23 26 12zm63-23 5-10-9-5-9-6-6 15-5 15h9c5 0 11-4 15-9zm85-6c0-8-4-15-10-15h-9l5 15c4 8 8 15 10 15s4-7 4-15zm106-82-7-18-10 18-10 17 7 11 6 11 10-10 11-11-7-18zm-349-13c-1-8-7-21-11-29l-9-14-13 17c-7 10-11 23-8 30l4 12h39l-2-16zm-757-297c0-5-19-30-41-56l-42-48-33 32-34 33 8 8c7 7 107 36 130 37 6 1 12-2 12-6zm225 1313c-38-17-69-52-83-94l-12-34 11-46 10-47 21-22 21-23h73l21 15 21 15 12 35 12 35-7 30-6 29-31 26-30 25h-45l-26-20c-14-11-29-30-32-41-4-11-9-18-12-16-8 8 23 60 51 86l26 25 58 3 57 4 32-20c18-11 39-31 49-45l16-26 8-52 9-53-2 72-3 72-24 27c-14 15-39 33-57 40l-32 14h-38c-21-1-51-7-68-14zm63-117c-2-6-8-10-13-10s-11 4-13 10l-4 11h34l-4-11zm-751 110c-50-12-87-31-117-63l-24-27-3-67-2-67 8 46c5 25 16 60 25 77l16 32 43 22 42 22h55l55 1 34-20c19-11 43-32 55-48l20-27 7-48 6-47 2 56 1 56-23 34-22 34-35 16c-46 22-96 28-143 18zm35-75-30-12-19-28-18-27 1-41 2-40 31-28 31-28h72l29 29 29 29v90l-25 30-25 30-24 4-24 5-30-13zm88-50v-16l-12 4c-6 2-14 10-16 16l-4 12h32v-16zm555 1226c3-5 8-10 11-10 2 0 4 5 4 10 0 6-5 10-11 10h-10l6-10zm527-1530v-25l5 13c2 6 2 18 0 25l-5 12v-25zm77-141-23-32 22 5 22 6v-19l11 6 10 7-18 14-18 14 15 9c8 6 12 13 8 16-3 3-16-8-29-26zm-1222-56-7-6 34-23c19-13 70-35 113-50l78-27 115-3 115-3-100 9c-108 8-175 23-243 52l-44 18-5 20-5 20h-22c-13 0-26-3-29-7zm1246-7 17-13-14-12-13-11-18 7-18 6 6-16 6-17h-9c-6 0-10-4-10-8v-9l23 2 22 2-3 12-2 12 10-6 11-7-3-30-3-31 12-4 13-5 6 17 7 16-13 23c-6 13-10 32-9 42 4 23-8 44-24 44l-12-1 18-13zm-614-23-24-26 20 11c11 6 26 15 34 20l13 10-9 5-10 6-24-26zm-161-70c6-2 18-2 25 0l12 5h-50l13-5zm1008-20-7-18 12 12c7 7 10 15 7 18s-9-2-12-12z"/></g><g fill="#77301d" transform="matrix(.1 0 0 -.1 0 300)"><path d="M1730 2941c0-5 15-14 33-20 36-12 67-43 67-66 0-19 5-19-65 7l-60 22h-400l-95-28c-127-38-232-84-306-132-63-41-174-132-209-173-11-13-29-33-40-45-11-11-20-23-20-26-1-6-24-44-77-123-21-32-38-60-38-63 0-15-91-144-109-153-26-14-34-14-25 1l7 11-11-7-11-7 5-13 5-14-20-7-21-6-11 6-10 7 16 12 17 12-17 14-16 13-10-10c-5-5-12-23-15-39l-4-29 10 15 10 15 1-10c1-5 1-14 0-19s8-15 19-23l21-15-5-13-5-13 15-6 14-5v-32l9 6 10 5-9-31c-5-18-12-34-16-38-4-3-3 5 1 17l7 24-21-11c-12-7-21-16-21-20 0-5-7-12-16-15l-16-6 6 17 7 18-12-12-11-11 7-11 6-11 10 5 9 6v-19c0-11-7-25-15-32l-14-12-11 7-10 6v-10c0-6 5-11 12-11h11l-16-18c-10-10-17-24-17-30 0-7-4-12-10-12h-9l5-15c4-8 3-26 0-40l-7-26-10 7-10 6 2-13c1-8 1-20 0-27l-1-13-11 7-12 7 5-14 5-14-14-10-14-10-4-30c-2-17-4-42-4-57l-1-27-26 14-26 13-14-5c-16-6-17-12-18-68l-1-40H63c-13 0-28-6-34-12l-11-11-2-35c0-20-4-38-8-42l-7-7-1-659L-1 0h2714l-7 46c-5 40-30 110-84 239-87 208-200 359-353 471l-60 44-11 26-12 25-13-5c-34-13-206-57-278-71l-80-16-85 2c-47 1-98 6-115 10-16 5-68 13-115 19-47 5-96 13-110 16-33 8-109 23-140 29-65 12-90 19-155 41-38 14-112 46-163 72l-94 46-43 48-43 48-30 73c-16 39-32 80-36 91l-6 19-25-27-24-26h-57l-45 29-45 28-36 44c-20 24-45 63-57 86l-21 42-11 68-12 68 17 57 16 57 30 30 31 30 34 7 34 6 35-12 35-11 31-35c16-19 30-42 30-52 0-9 9-36 20-60l20-43 22 3 23 3 18 35c9 19 24 60 32 92l16 56 38 16c22 8 58 16 81 18l41 2 10-15c5-7 9-27 9-44 0-47 26-131 55-180l26-45 50-40 50-40 42-12 42-13h190l52 18 52 18 51 46 51 46 24 47 23 46 12 65c7 35 17 75 24 89l12 25 42 9 41 9 31-13 30-12v-43c0-59 21-121 64-188l37-57 37-25 37-24 65-17 65-16 74 5 74 6 64 31 64 32 34 51 34 52 15 65 16 65v114l21 11 20 11-3 32-3 32-22 3c-12 2-27 9-33 17l-11 13 17 59c9 32 23 94 30 138 6 44 12 72 13 63 1-21 21-24 21-4 0 8-6 48-14 89l-15 75-20 40c-51 100-156 214-231 250-15 7-37 22-49 33-27 26-59 37-161 58l-85 18 24 13 24 12 46-5 46-5-29 23c-47 37-114 41-161 9-27-19-31-18-45 15-6 16-24 40-38 54l-27 26-45 15c-25 9-55 16-67 16h-23v-9zm289-437c86-49 151-125 151-175v-21l14 11c8 7 17 23 20 37l7 25 9-3c21-7 102-116 135-181 34-67 53-133 42-143-3-3-31 1-61 10l-56 17v9c0 5-19 19-42 31l-42 22h-61l-62 1-44-23c-46-24-59-37-59-59v-13l12 7c20 13 131 33 181 34h48l-5-9c-3-4-32-11-64-14l-59-5-45-19c-24-11-60-34-80-52l-37-32-26-52-26-52-62-1c-34 0-74-4-88-8l-26-8-7 27c-4 15-14 38-23 51l-16 24-61 34-61 34-53 11-53 11h-86c-48 0-84 3-81 6 4 3 72 5 152 5l146-1v10c0 5-10 18-22 29l-22 21-34 6c-19 4-70 4-114 1l-80-5-67-34-66-33 1-17 2-16-16 5-15 6 6-10 7-11-33-13c-17-7-54-33-80-58l-49-45-66-18c-37-10-72-18-79-18h-11l13 44c16 52 31 83 54 107l16 17 158 62 158 61 9-6c5-3 44 1 86 10l77 16 100 41 100 42 80 75c43 42 83 78 89 80l10 3-18-33c-28-55-77-115-113-140l-35-24 16-3 16-3 65 36c36 20 86 54 111 76l46 41 40 66c41 69 47 71 31 14l-10-32 9 5c4 3 13 29 20 57 20 93 14 89 79 52zm317-479c27-8 55-19 63-24l14-9 8-144c4-78 8-145 9-148 2-7 37 91 44 123l7 28 12-4 12-4-1-94-1-94-22-51-22-52-27-25c-15-14-49-36-77-49l-50-22-90-1h-90l-66 32-66 33-26 37c-32 46-54 108-63 172l-6 48 12 57 12 56 31 42c37 48 81 77 146 94l46 13h71l70 1 50-15zm-1941-5 6-10h-15c-9 0-16 5-16 10 0 6 4 10 9 10 6 0 13-4 16-10zm1108-45c27-8 64-24 82-35l34-21 20-32 20-32 6-50 7-50-11-59c-6-32-21-79-33-103l-23-45-48-44-49-44-50-15c-28-8-72-17-97-21l-48-6-59 12-59 12-41 24c-23 13-55 39-72 58l-30 34-21 57-21 56v108l20 54 20 53 28 27c36 35 108 66 179 77l58 9 70-5c39-3 92-12 118-19zm-1103-74c0-6-4-13-10-16-5-3-10-15-10-26v-20l-10 6-9 6-25-40c-14-22-30-42-35-45l-10-6-5 9-6 9 50 52c27 28 49 54 49 58-2 15 1 22 11 22 6 0 10-4 10-9zm-70-191c0-5-5-10-11-10h-10l6 10c3 6 8 10 11 10 2 0 4-4 4-10zm9-140v-15l-9 20c-5 11-9 25-9 30l-1 10 10-15c5-8 9-22 9-30zm-139-44c0-3-4-8-10-11l-10-6v10c0 6 5 11 10 11 6 0 10-2 10-4zm-16-106-10-10-1 22-2 21 12-12 11-11-10-10zM71 1297l-12-12 7 18c3 10 9 15 12 12s0-11-7-18zm1769-673c0-22-77-131-101-145l-21-11-49 48c-27 27-49 54-49 61v12l33 18c17 9 43 19 57 21 13 2 27 5 29 8 2 2 26 4 53 4h48v-16zm180 1268-35-17-22-34c-13-19-23-39-23-45s9 3 20 21l19 32 33 17 33 18h90l32-17c42-22 63-54 73-114l8-48 1 45 1 45-18 35-17 35-40 22-40 23h-80l-35-18zm-15-61c-28-12-44-33-55-70l-8-31 9-35 10-34 22-16 21-15h62l21 15 21 15 12 35 12 35-12 34c-13 40-36 62-70 70l-25 5-20-8zm80-61-7-12-10 10-10 10 7 12 7 12 10-10 10-10-7-12zm-804 97-45-22-20-27-19-27-3-58-3-58 9 49 9 50 19 25 18 26 44 23 44 22h91l42-19 41-19 18-28 18-27 7-46 6-46 2 39 1 40-21 42-20 43-43 20-42 21h-55l-54-1-44-22zm58-76-29-29v-94l29-29 29-29h27c34 0 82 25 95 49 5 11 10 38 10 61v42l-29 29-29 29h-74l-29-29zm121-26v-15h-30v30h30v-15zM279 2258c-1-2-2-17-3-33-1-17-6-36-10-43-13-21 0-25 19-6l16 17-13 8-13 8 13 21c6 11 12 22 12 25 0 5-19 7-21 3zm-119-142c0-2 7-7 16-10l15-6-6 10c-6 10-25 14-25 6zm55-38-29-31 22 7 22 7v-10c0-6 5-11 11-11h10l-7 13-8 12 17-14 17-13v10c0 6-4 13-10 17l-9 6 5 13 5 14-8 5-9 6-29-31zm-85-38c0-5 5-10 11-10h10l-6 10c-3 6-8 10-11 10-2 0-4-4-4-10zm80-35c0-8 4-15 8-15 5 0 9 7 9 15s-4 15-9 15c-4 0-8-7-8-15zm100-17v-31l20 18 21 19-7-20-6-19 11 15 10 15-16 17c-9 10-20 18-25 18h-8v-32zm-272-15c7-3 16-2 19 1 4 3-2 6-13 5l-19-1 13-5zm27-53-6-10h10c6 0 11 5 11 10 0 6-2 10-4 10-3 0-8-4-11-10zm115-3c-8-7-17-21-18-32-2-11-9-26-15-34l-12-14 25 8c14 4 29 14 33 21 4 8 19 25 33 39l25 25h-28c-15 0-35-6-43-13zM74 1812l-12-18 17-20 16-21 15 5 15 5-12-14c-7-7-13-17-13-22s10 2 21 17l22 27-12 12-11 11v-25l-19 11-19 10 5 20c7 25 1 26-13 2zm136-31c0-6 4-12 9-15l9-6-6-22-5-21 11 7c7 4 12 16 12 27v19h-21l6 10 6 10h-10c-6 0-11-4-11-9zM28 1673l13-5-13-16-13-16 12 8 13 7v-8c0-5-5-14-12-21l-12-12h10c6 0 21-8 32-18l22-19-25-11c-27-13-32-27-12-35l12-5-13-1c-7-1-19-7-26-13l-13-13 9-27c10-29 22-35 33-18l6 10H32l5 20c3 11 9 20 13 20 5 0 12 14 15 31l7 32 9-14c5-8 9-12 10-9 7 44 11 55 20 66 6 7 20 14 32 16l22 3 3 19 4 19-18-8c-11-4-37-9-59-12l-40-6 7 8 7 7-14 14c-7 8-20 14-27 13l-13-1 13-5zm419-5-17-13 6-31 6-31 26 4c15 2 40 5 55 7l28 4 14-15c17-16 20-33 6-33h-10l-17-54-17-54 13-31c14-35 54-71 78-71h14l-5 18c-3 9-11 31-18 49l-13 31 19 41 18 41-17 45-18 45-33 26-33 25-34 5-33 5-18-13zm1248-247-6-10 36-7c38-7 51-2 40 15l-6 11h-29c-16 0-31-4-35-9zm-295-165c0-2 7-6 15-10l15-5v9c0 6-7 10-15 10s-15-2-15-4z"/></g><g fill="#143e28" transform="matrix(.1 0 0 -.1 0 300)"><path d="M1817 2902c29-29 50-68 40-78-2-2-21 3-42 12-21 8-70 22-109 30l-71 14-160-4-160-4-85-25c-150-43-250-89-365-168-70-48-181-152-213-201-9-14-42-64-72-110-31-45-70-108-88-139l-32-57-39-35c-21-19-49-38-62-42l-23-8 23-18 23-19h58l-6-32c-3-18-7-38-9-45-6-18 15-144 28-175l12-28h38c44 0 70-12 109-48l27-25 7-31c3-17 13-43 20-58l15-28h44l23 63c12 34 22 72 22 84v22l18 10c9 5 43 14 75 21l59 12 22-6 23-6 6-59c16-152 94-262 218-307l44-16 80-1h80l56 16 56 17 49 32 49 33 33 55c37 62 50 103 59 178l6 53 28 14 28 15h38c21 0 45-4 53-10l14-9 12-68c12-70 27-110 68-176l23-38 37-25c20-14 56-32 79-40l42-16 80-1 80-1 57 18 57 19 41 34 41 35 20 40c25 49 49 156 49 220v47l20 11 20 11v57l-19-5-19-5-19 22-20 21 12 57c25 112 34 158 45 225l11 68-12 42c-31 118-153 253-320 353l-68 41-57 12c-32 6-71 11-88 11h-30l15 16c9 8 34 21 55 29l39 13-28 11c-41 16-57 14-103-13l-41-23-27 49-27 48-27 14c-15 7-38 17-52 21l-25 8 32-31zm207-396c68-38 120-85 142-128l15-29 20 23 19 23 31-35c17-19 51-65 74-101l44-65 20-62c12-34 21-69 21-78s8-23 18-31l17-14-32 16c-40 19-87 25-225 28l-107 2 12-8 12-9-30 6-30 7 15-11 15-11-20 4-20 3-27-13c-16-7-28-16-28-19s6-2 13 2l12 7-8-9c-5-5-16-9-25-9h-17l-33-50c-18-27-36-61-39-76l-5-26-51-1-52-1 20 10 20 9-25-4c-14-3-41-8-61-11l-36-7-7 26-6 25-33 32c-36 35-133 84-159 80l-18-2v18l-29-5-29-4-6 11-7 11h-135l-59-15c-84-22-142-52-187-97l-38-38-78-25c-42-14-83-25-91-25h-13l7 37c4 20 18 65 31 99l25 62 86 30c47 17 90 29 95 26 8-5 120 36 227 82 29 13 61 24 70 24l16-1-40-25-40-26 40 7c52 9 172 57 227 91 50 31 133 98 201 163l48 46-11-30c-14-37-56-110-87-152l-24-31 13 2c32 4 178 124 178 146 0 5 6 15 14 22 7 8 21 29 31 48s24 40 31 48c8 7 14 20 14 28 0 20 5 18 74-20zm351-491 40-20 3-30c2-16 9-33 15-37l12-8h-25l1-57c0-32 4-76 8-98l8-40 18 62 18 62 15 6c8 3 17 3 20 0 3-2 5-42 4-87v-83l-20-60c-11-33-18-63-15-67l4-8-13 2-13 3 2-18c0-10-1-16-4-13s-14-5-25-17l-20-22 7 15c4 8-2 4-13-9l-19-24-12 7-11 7v-23l-16 6-15 6 5-9 6-8-38-7c-20-3-59-6-87-6h-50l-46 14c-67 21-103 41-142 81l-34 35-22 65-21 65v127l14 41c29 81 81 130 169 158l42 14 105-3 105-2 40-20zm-852-45 59-22 32-29 32-28 13-39 13-39-3-75-4-76-35-68-35-68-49-37-49-37-51-15-51-14-86-1h-87l-48 23c-60 28-85 51-121 112l-27 47-13 60-12 59 9 48c24 128 81 184 214 215l61 14 90-4 90-4 58-22zm-217 129-48-8-22-20c-12-12-27-21-33-21s-16-7-23-15l-12-15h11c6 0 11 5 11 11v11l14-5c7-3 31-2 52 3 22 5 76 10 122 11l84 3-16 12c-21 15-20 24 1 24 9 0 14 2 11 5-9 10-104 12-152 4zm834-207c0-4 15-15 33-25l33-18 17-27c9-15 17-22 17-16 0 14-49 66-77 82l-23 12v-8zm-131-66-24-13 3-12 2-12-9 6-10 6-10-20c-6-11-11-38-11-60v-40l9-5 9-6-5 44-5 43 11 7 10 7-1-36-1-36 21-22 22-21 40 11 41 10-13-16c-7-9-3-6 10 7l22 23v85l-15 21c-8 11-28 25-44 31l-29 10-23-12zm81-46v-20h-30v13c0 8 3 17 7 20 12 13 23 7 23-13zm17-22-5-13-1 19c-1 11 2 17 5 13 3-3 4-12 1-19zm-69-125c7-3 16-2 19 1 4 3-2 6-13 5l-19-1 13-5zm-727 242-43-14-29-27c-16-15-29-33-29-38l1-11 10 17c5 10 29 29 52 42l42 25 41 7 42 6 38-12c22-7 53-22 69-32l30-20-28 26-27 25-38 10c-48 14-77 13-131-4zm50-69c-48-27-64-91-36-145 8-16 22-31 31-35l16-6-26 31-26 31v26c0 15 5 34 10 42l10 15v-73l19-23 19-23 50-2 50-2 11 24c22 49 10 102-33 136l-21 18-25-1c-14 0-36-6-49-13zm107-39 3-17h-41v13c0 31 32 34 38 4zm-28-137-15-10h12c6 0 15 5 18 10 8 12 4 12-15 0zm-42-17c7-3 16-2 19 1 4 3-2 6-13 5l-19-1 13-5zm-755-400-23-4v-13c0-23 93-96 106-83 3 2-4 26-14 53l-20 49-13 1c-8 1-24-1-36-3zm212-313c-14-22-25-46-25-54v-15l-22-12c-46-24-175-128-224-180-88-94-208-286-239-383-7-23-22-66-33-96s-25-79-30-107l-9-53h2435l-9 37c-39 173-154 414-261 550l-49 61-93 77c-52 42-100 85-108 95l-13 19-115-43-115-43 2-9c3-15-37-76-83-125-23-25-53-63-66-85-14-21-35-47-46-58l-21-18-60 52c-33 28-62 58-65 66l-6 15-87 40-88 40-70 53-70 53-100 32-100 32-94 50c-52 27-98 49-102 49-5 0-20-18-34-40z"/></g><g fill="#2f2418" transform="matrix(.1 0 0 -.1 0 300)"><path d="M1817 2902c29-29 50-68 40-78-2-2-21 3-42 12-21 8-70 22-109 30l-71 14-160-4-160-4-85-25c-150-43-250-89-365-168-70-48-181-152-213-201-9-14-42-64-72-110-31-45-70-108-88-139l-32-57-39-35c-21-19-49-38-62-42l-23-8 23-18 23-19h58l-6-32c-3-18-7-38-9-45-6-18 15-144 28-175l12-28h38c44 0 70-12 109-48l27-25 7-31c3-17 13-43 20-58l15-28h44l23 63c12 34 22 72 22 84v22l18 10c9 5 43 14 75 21l59 12 22-6 23-6 6-59c16-152 94-262 218-307l44-16 80-1h80l56 16 56 17 49 32 49 33 33 55c37 62 50 103 59 178l6 53 28 14 28 15h38c21 0 45-4 53-10l14-9 12-68c12-70 27-110 68-176l23-38 37-25c20-14 56-32 79-40l42-16 80-1 80-1 57 18 57 19 41 34 41 35 20 40c25 49 49 156 49 220v47l20 11 20 11v57l-19-5-19-5-19 22-20 21 12 57c25 112 34 158 45 225l11 68-12 42c-31 118-153 253-320 353l-68 41-57 12c-32 6-71 11-88 11h-30l15 16c9 8 34 21 55 29l39 13-28 11c-41 16-57 14-103-13l-41-23-27 49-27 48-27 14c-15 7-38 17-52 21l-25 8 32-31zm207-396c68-38 120-85 142-128l15-29 20 23 19 23 31-35c17-19 51-65 74-101l44-65 20-62c12-34 21-69 21-78s8-23 18-31l17-14-32 16c-40 19-87 25-225 28l-107 2 12-8 12-9-30 6-30 7 15-11 15-11-20 4-20 3-27-13c-16-7-28-16-28-19s6-2 13 2l12 7-8-9c-5-5-16-9-25-9h-17l-33-50c-18-27-36-61-39-76l-5-26-51-1-52-1 20 10 20 9-25-4c-14-3-41-8-61-11l-36-7-7 26-6 25-33 32c-36 35-133 84-159 80l-18-2v18l-29-5-29-4-6 11-7 11h-135l-59-15c-84-22-142-52-187-97l-38-38-78-25c-42-14-83-25-91-25h-13l7 37c4 20 18 65 31 99l25 62 86 30c47 17 90 29 95 26 8-5 120 36 227 82 29 13 61 24 70 24l16-1-40-25-40-26 40 7c52 9 172 57 227 91 50 31 133 98 201 163l48 46-11-30c-14-37-56-110-87-152l-24-31 13 2c32 4 178 124 178 146 0 5 6 15 14 22 7 8 21 29 31 48s24 40 31 48c8 7 14 20 14 28 0 20 5 18 74-20zm351-491 40-20 3-30c2-16 9-33 15-37l12-8h-25l1-57c0-32 4-76 8-98l8-40 18 62 18 62 15 6c8 3 17 3 20 0 3-2 5-42 4-87v-83l-20-60c-11-33-18-63-15-67l4-8-13 2-13 3 2-18c0-10-1-16-4-13s-14-5-25-17l-20-22 7 15c4 8-2 4-13-9l-19-24-12 7-11 7v-23l-16 6-15 6 5-9 6-8-38-7c-20-3-59-6-87-6h-50l-46 14c-67 21-103 41-142 81l-34 35-22 65-21 65v127l14 41c29 81 81 130 169 158l42 14 105-3 105-2 40-20zm-852-45 59-22 32-29 32-28 13-39 13-39-3-75-4-76-35-68-35-68-49-37-49-37-51-15-51-14-86-1h-87l-48 23c-60 28-85 51-121 112l-27 47-13 60-12 59 9 48c24 128 81 184 214 215l61 14 90-4 90-4 58-22zm-217 129-48-8-22-20c-12-12-27-21-33-21s-16-7-23-15l-12-15h11c6 0 11 5 11 11v11l14-5c7-3 31-2 52 3 22 5 76 10 122 11l84 3-16 12c-21 15-20 24 1 24 9 0 14 2 11 5-9 10-104 12-152 4zm834-207c0-4 15-15 33-25l33-18 17-27c9-15 17-22 17-16 0 14-49 66-77 82l-23 12v-8zm-131-66-24-13 3-12 2-12-9 6-10 6-10-20c-6-11-11-38-11-60v-40l9-5 9-6-5 44-5 43 11 7 10 7-1-36-1-36 21-22 22-21 40 11 41 10-13-16c-7-9-3-6 10 7l22 23v85l-15 21c-8 11-28 25-44 31l-29 10-23-12zm81-46v-20h-30v13c0 8 3 17 7 20 12 13 23 7 23-13zm17-22-5-13-1 19c-1 11 2 17 5 13 3-3 4-12 1-19zm-69-125c7-3 16-2 19 1 4 3-2 6-13 5l-19-1 13-5zm-727 242-43-14-29-27c-16-15-29-33-29-38l1-11 10 17c5 10 29 29 52 42l42 25 41 7 42 6 38-12c22-7 53-22 69-32l30-20-28 26-27 25-38 10c-48 14-77 13-131-4zm50-69c-48-27-64-91-36-145 8-16 22-31 31-35l16-6-26 31-26 31v26c0 15 5 34 10 42l10 15v-73l19-23 19-23 50-2 50-2 11 24c22 49 10 102-33 136l-21 18-25-1c-14 0-36-6-49-13zm107-39 3-17h-41v13c0 31 32 34 38 4zm-28-137-15-10h12c6 0 15 5 18 10 8 12 4 12-15 0zm-42-17c7-3 16-2 19 1 4 3-2 6-13 5l-19-1 13-5zm-755-400-23-4v-13c0-23 93-96 106-83 3 2-4 26-14 53l-20 49-13 1c-8 1-24-1-36-3zm212-313c-14-22-25-46-25-54v-15l-22-12c-46-24-175-128-224-180-52-56-157-207-195-282-43-83-110-282-108-322 0-11 9 12 19 50 51 194 161 403 290 548 47 53 170 148 226 174l35 17-2 15c-2 28 1 38 20 59 23 28 38 28 81-1 19-13 78-43 130-67 52-23 133-63 180-88 115-62 170-89 200-97l25-6-43 25c-23 14-68 45-100 69l-57 44-100 32-100 32-94 50c-52 27-98 49-102 49-5 0-20-18-34-40zm1160-120-70-27 2-9c2-11-32-69-61-105-12-14 12 8 52 49l73 73 44 20c25 11 45 22 45 24 0 8-12 4-85-25zM867 790c5-8 25-35 45-60s39-55 42-67c4-11 13-24 22-27l14-6-11 23c-17 32-59 87-93 122-16 17-25 23-19 15zm713-194c0-2 8-10 18-17l17-14-14 18c-13 16-21 21-21 13zm335-35c-16-11-43-31-60-46l-30-26 22 4 22 5 3-8 3-8 40 13c22 8 55 16 73 18l32 5-6-9-5-9-12 6-12 7 7-8c4-4 26-9 49-11 23-3 49-9 58-15 9-7-6 10-33 35-71 69-102 78-151 47zm-515-41c-31-21-62-45-69-53l-12-15 48 15c26 9 65 17 86 19l37 2 36-24c48-33 51-30 14 16l-32 40h11c6 0 11-4 11-9s12-16 26-26l27-17-27 34c-14 19-26 38-26 42v7l12-7 11-7-7 11-7 12-42-1h-42l-55-39zm400 20c-6-11-8-20-6-20 3 0 10 9 16 20s8 20 6 20c-3 0-10-9-16-20zm-230-4c0-2 8-10 18-17l17-14-14 18c-13 16-21 21-21 13zm190-51-24-26-13 5-12 5 6-15 6-15 33 32c19 18 34 34 34 36 0 7-8 1-30-22zm-41-164-23-18v-74l15-10c21-13 52-11 77 7l22 15v27c0 33-8 45-37 61-28 14-27 14-54-8z"/></g></g></svg>