<?xml version="1.0" standalone="no"?>
<!DOCTYPE svg PUBLIC "-//W3C//DTD SVG 20010904//EN"
 "http://www.w3.org/TR/2001/REC-SVG-20010904/DTD/svg10.dtd">
<svg version="1.0" xmlns="http://www.w3.org/2000/svg"
 width="512.000000pt" height="512.000000pt" viewBox="0 0 512.000000 512.000000"
 preserveAspectRatio="xMidYMid meet">
<metadata>
Created by potrace 1.11, written by Peter Selinger 2001-2013
</metadata>
<g transform="translate(0.000000,512.000000) scale(0.100000,-0.100000)"
fill="#000000" stroke="none">
<path d="M1120 5105 c-122 -30 -208 -80 -302 -178 -38 -38 -68 -74 -68 -80 0
-6 -6 -18 -13 -26 -21 -24 -56 -118 -71 -191 -11 -54 -14 -404 -14 -2065 0
-1221 3 -2023 9 -2060 22 -137 83 -250 196 -362 30 -30 118 -84 183 -113 l55
-25 1420 0 1420 0 67 32 c202 95 317 236 363 445 19 88 18 3743 -1 3759 -8 6
-14 17 -14 23 0 6 -155 167 -344 356 -190 189 -342 348 -340 352 3 5 1 7 -4 6
-6 -2 -38 24 -73 58 -35 33 -74 66 -86 73 -34 18 -2308 14 -2383 -4z m2193
-244 c16 -1 17 -18 17 -204 0 -149 -3 -207 -12 -216 -11 -11 -10 -13 0 -7 10
6 12 -18 11 -116 -1 -140 7 -168 60 -200 34 -21 44 -22 370 -22 l336 -1 3
-1740 c1 -957 3 -1761 3 -1786 0 -136 -141 -284 -293 -306 -29 -5 -629 -8
-1333 -7 -1190 1 -1284 2 -1330 19 -27 9 -64 26 -82 37 -52 31 -120 115 -144
176 l-22 57 -1 1980 c-1 1089 2 2003 7 2030 27 158 164 292 312 307 27 3 2055
2 2098 -1z m607 -504 c0 -3 -63 -6 -140 -6 -92 0 -138 4 -134 10 3 6 -3 5 -14
-2 -12 -7 -24 -10 -28 -6 -5 5 -9 254 -5 316 1 12 321 -299 321 -312z"/>
<path d="M2326 4083 c-150 -25 -290 -99 -400 -209 -105 -105 -161 -205 -200
-354 -22 -85 -23 -103 -23 -524 -1 -354 2 -447 14 -493 25 -97 94 -180 191
-229 l57 -29 349 -5 349 -5 -1 -299 -1 -300 55 -82 c30 -44 54 -87 54 -95 0
-8 -14 -34 -31 -59 -87 -129 -88 -164 -12 -284 l51 -79 -45 -71 c-55 -87 -94
-130 -152 -167 -103 -67 -190 -23 -303 152 l-36 56 59 87 c48 71 59 95 59 127
0 48 -5 58 -70 145 l-50 67 45 61 c74 99 86 132 84 233 -2 136 -31 181 -122
190 -51 5 -84 -11 -114 -56 -19 -28 -23 -47 -23 -110 l0 -77 -62 -94 c-86
-133 -88 -162 -19 -274 28 -46 51 -87 51 -90 0 -4 -23 -45 -51 -91 -71 -116
-68 -139 33 -295 147 -226 279 -322 450 -329 115 -5 254 62 350 168 65 71 195
279 202 322 6 39 -21 102 -81 186 -13 17 -23 34 -23 37 0 3 23 43 52 89 75
119 73 135 -23 284 l-59 91 0 266 c0 146 3 266 8 267 4 1 32 2 62 4 80 5 104
11 160 41 102 55 175 158 188 266 4 29 7 124 6 211 0 104 3 157 10 157 8 0 8
3 0 8 -7 5 -10 76 -10 212 1 127 -4 233 -12 280 -44 256 -182 464 -392 596
-58 37 -160 79 -215 90 -11 2 -33 7 -50 10 -55 12 -280 10 -359 -3z m349 -256
c101 -28 187 -80 249 -148 56 -63 83 -109 110 -191 25 -73 25 -74 25 -491 1
-298 -2 -425 -11 -440 -15 -29 -47 -57 -67 -58 -88 -6 -934 -3 -957 3 -17 4
-41 19 -54 33 l-24 25 -1 413 c-1 450 3 484 56 592 53 108 150 195 266 238 37
14 77 28 88 30 27 6 295 1 320 -6z"/>
<path d="M2403 3596 c-125 -39 -213 -149 -227 -282 -9 -93 56 -160 146 -150
57 7 95 46 107 110 10 52 25 73 56 77 37 5 63 -11 69 -41 3 -17 8 -43 11 -59
10 -48 58 -85 114 -87 40 -2 54 2 84 27 19 16 39 41 44 56 23 67 -12 191 -74
258 -82 90 -215 126 -330 91z"/>
</g>
</svg>
