<?xml version="1.0" standalone="no"?>
<!DOCTYPE svg PUBLIC "-//W3C//DTD SVG 20010904//EN"
 "http://www.w3.org/TR/2001/REC-SVG-20010904/DTD/svg10.dtd">
<svg version="1.0" xmlns="http://www.w3.org/2000/svg"
 width="512.000000pt" height="512.000000pt" viewBox="0 0 512.000000 512.000000"
 preserveAspectRatio="xMidYMid meet">
<metadata>
Created by potrace 1.11, written by Peter Selinger 2001-2013
</metadata>
<g transform="translate(0.000000,512.000000) scale(0.100000,-0.100000)"
fill="#000000" stroke="none">
<path d="M1117 4745 c-26 -7 -55 -16 -65 -21 -9 -4 -20 -6 -24 -6 -5 1 -8 -2
-8 -8 0 -5 -7 -10 -15 -10 -8 0 -15 -4 -15 -10 0 -5 -7 -10 -15 -10 -8 0 -15
-4 -15 -10 0 -5 -4 -10 -10 -10 -37 0 -139 -166 -145 -237 -2 -21 -4 -40 -5
-43 -11 -34 3 -261 18 -285 4 -5 7 -15 8 -22 3 -19 60 -97 100 -137 49 -49
164 -103 239 -112 84 -10 2844 -9 2891 1 22 5 41 9 44 10 3 1 18 5 35 10 58
16 143 78 200 146 21 25 64 116 71 153 5 26 6 265 1 286 -2 8 -7 23 -11 32 -4
9 -8 23 -10 31 -1 8 -9 26 -19 40 -9 15 -17 30 -17 36 0 5 -26 33 -59 63 -55
51 -136 98 -198 115 -16 4 -680 8 -1478 9 -1172 2 -1459 0 -1498 -11z m346
-359 c29 -39 45 -77 41 -96 -10 -49 -15 -63 -35 -91 -25 -36 -92 -69 -123 -63
-12 3 -32 7 -46 8 -25 4 -96 74 -98 98 0 7 -3 22 -5 33 -6 26 16 90 39 116 19
21 65 45 99 51 36 7 104 -23 128 -56z"/>
<path d="M1115 3601 c-33 -10 -76 -25 -96 -35 -56 -26 -142 -108 -171 -163
-32 -58 -59 -165 -47 -184 4 -7 5 -17 2 -22 -7 -12 -6 -114 1 -179 6 -44 31
-109 58 -153 41 -62 176 -164 199 -149 5 3 9 1 9 -4 0 -11 33 -21 100 -30 63
-8 2847 -7 2890 2 42 8 47 10 83 24 16 7 31 12 33 12 3 0 26 14 52 31 93 62
165 168 178 260 5 40 5 233 0 286 -1 12 -17 51 -36 87 -54 107 -147 181 -277
219 -46 14 -221 16 -1485 15 -1315 0 -1438 -2 -1493 -17z m322 -329 c58 -41
81 -129 49 -189 -74 -143 -275 -101 -291 60 -1 15 1 30 6 33 5 3 7 9 4 13 -8
15 39 73 75 93 44 24 115 20 157 -10z"/>
<path d="M1150 2468 c-48 -11 -65 -16 -65 -18 0 -1 -11 -3 -24 -6 -12 -2 -34
-13 -48 -24 -14 -11 -31 -20 -37 -20 -29 -1 -163 -171 -150 -191 3 -5 0 -9 -5
-9 -6 0 -11 -9 -11 -21 0 -11 -5 -29 -10 -39 -6 -11 -6 -21 -1 -24 5 -3 5 -21
1 -41 -4 -19 -4 -37 1 -40 4 -3 5 -13 2 -22 -9 -23 -8 -66 1 -81 4 -7 2 -12
-4 -12 -6 0 -8 -5 -4 -12 4 -6 8 -23 10 -37 1 -14 3 -26 4 -26 1 0 3 -10 6
-23 8 -42 55 -116 104 -162 45 -43 136 -96 183 -106 12 -3 33 -8 47 -11 34 -8
2866 -8 2911 0 91 16 172 60 242 130 31 32 57 65 57 73 0 8 5 14 10 14 6 0 10
6 10 14 0 8 5 27 11 43 17 40 18 55 18 188 0 158 2 150 -42 244 -37 79 -172
193 -243 204 -10 1 -26 7 -34 12 -19 12 -2889 15 -2940 3z m278 -334 c15 -10
32 -23 39 -29 16 -17 45 -87 31 -79 -7 5 -8 1 -1 -11 20 -35 -43 -145 -83
-145 -8 0 -14 -4 -14 -8 0 -5 -22 -8 -48 -8 -164 5 -214 214 -68 289 36 19
108 15 144 -9z"/>
<path d="M2470 1342 l-26 -3 1 -209 c0 -134 -4 -210 -10 -211 -5 0 -89 -2
-185 -3 -96 -2 -182 -3 -191 -4 -20 -2 -70 -52 -64 -63 3 -4 2 -10 -2 -12 -14
-9 -8 -370 5 -375 7 -2 12 -9 12 -15 0 -7 12 -19 28 -27 23 -13 98 -15 522
-14 539 1 538 1 561 57 18 42 18 367 0 400 -25 47 -44 51 -246 54 -104 1 -192
2 -195 2 -3 1 -5 97 -4 213 l0 213 -90 0 c-50 0 -102 -1 -116 -3z"/>
<path d="M527 761 c-73 -42 -74 -154 -2 -197 28 -17 72 -19 658 -19 345 0 628
2 628 5 1 3 2 55 3 116 l1 112 -630 -1 c-556 0 -633 -2 -658 -16z"/>
<path d="M3309 771 c-3 -22 -4 -199 -1 -211 3 -13 78 -15 625 -14 342 1 629 4
637 7 32 9 50 20 50 29 0 5 7 16 15 24 34 35 6 131 -46 157 -25 11 -133 14
-654 14 -344 1 -625 -2 -626 -6z"/>
</g>
</svg>
