<?xml version="1.0" standalone="no"?>
<!DOCTYPE svg PUBLIC "-//W3C//DTD SVG 20010904//EN"
 "http://www.w3.org/TR/2001/REC-SVG-20010904/DTD/svg10.dtd">
<svg version="1.0" xmlns="http://www.w3.org/2000/svg"
 width="512.000000pt" height="512.000000pt" viewBox="0 0 512.000000 512.000000"
 preserveAspectRatio="xMidYMid meet">
<metadata>
Created by potrace 1.14, written by Peter Selinger 2001-2017
</metadata>
<g transform="translate(0.000000,512.000000) scale(0.100000,-0.100000)"
fill="#000000" stroke="none">
<path d="M2428 4915 c-2 -2 -39 -5 -83 -9 -44 -3 -91 -8 -105 -10 -14 -3 -38
-7 -55 -9 -24 -4 -125 -25 -205 -42 -57 -13 -204 -61 -289 -95 -183 -72 -332
-154 -521 -287 -146 -102 -337 -288 -480 -468 -101 -127 -230 -349 -304 -527
-40 -96 -99 -270 -110 -328 -3 -14 -12 -52 -20 -85 -8 -33 -17 -85 -21 -115
-4 -30 -9 -64 -11 -75 -24 -118 -23 -453 2 -630 4 -33 36 -195 50 -255 47
-208 184 -517 320 -720 149 -223 297 -382 538 -577 114 -93 402 -255 561 -316
380 -146 771 -193 1180 -143 389 48 797 220 1130 475 160 123 326 294 458 473
167 226 331 574 382 807 15 68 45 223 50 256 23 171 26 478 4 610 -4 28 -10
68 -13 90 -4 37 -34 176 -55 255 -71 272 -224 574 -420 827 -65 84 -235 264
-306 323 -108 90 -141 115 -240 181 -212 142 -512 276 -725 324 -8 1 -33 8
-55 13 -22 6 -60 14 -85 17 -24 4 -47 8 -50 10 -3 1 -32 6 -65 10 -33 3 -76 9
-95 12 -34 5 -357 12 -362 8z"/>
</g>
</svg>
