<?xml version="1.0" standalone="no"?>
<!DOCTYPE svg PUBLIC "-//W3C//DTD SVG 20010904//EN"
 "http://www.w3.org/TR/2001/REC-SVG-20010904/DTD/svg10.dtd">
<svg version="1.0" xmlns="http://www.w3.org/2000/svg"
 width="512.000000pt" height="512.000000pt" viewBox="0 0 512.000000 512.000000"
 preserveAspectRatio="xMidYMid meet">
<metadata>
Created by potrace 1.11, written by Peter Selinger 2001-2013
</metadata>
<g transform="translate(0.000000,512.000000) scale(0.100000,-0.100000)"
fill="#000000" stroke="none">
<path d="M4290 4941 c-153 -51 -266 -185 -274 -324 -5 -101 49 -220 131 -285
153 -120 323 -110 461 25 112 111 137 255 67 392 -57 113 -173 191 -293 197
-37 2 -78 0 -92 -5z"/>
<path d="M3774 4664 c-35 -19 -44 -31 -44 -65 0 -62 73 -98 122 -60 32 25 39
56 21 92 -17 37 -62 52 -99 33z"/>
<path d="M1749 4579 c-21 -21 -19 -56 5 -71 17 -12 51 -9 64 4 19 19 15 66 -7
78 -28 14 -38 13 -62 -11z"/>
<path d="M2507 4414 c-1 -1 -34 -4 -72 -8 -80 -7 -100 -10 -207 -31 -256 -50
-515 -160 -742 -315 -121 -82 -181 -132 -301 -250 l-90 -88 -120 -6 c-192 -9
-368 -50 -482 -113 -79 -44 -166 -138 -192 -208 -23 -61 -30 -148 -18 -217 22
-123 119 -293 257 -452 48 -56 59 -74 55 -95 -17 -91 -23 -302 -11 -438 22
-261 109 -554 232 -778 l33 -61 -33 -79 c-94 -231 -103 -398 -31 -542 60 -119
158 -197 288 -227 52 -12 246 -14 293 -3 12 3 39 8 60 11 22 4 78 18 126 31
l87 25 103 -48 c57 -27 130 -59 163 -72 33 -12 69 -27 80 -31 19 -8 198 -57
233 -64 296 -54 552 -53 832 5 438 92 883 367 1166 722 70 87 71 88 107 88 41
0 172 29 254 55 173 57 280 149 324 278 21 63 18 185 -7 267 -30 102 -103 231
-185 330 l-37 45 2 175 c4 264 -27 461 -105 686 -54 158 -54 154 -31 205 116
255 142 523 67 669 -46 89 -122 153 -226 191 -131 47 -415 25 -539 -41 -15 -8
-52 7 -70 30 -9 11 -172 107 -245 143 -113 57 -316 133 -410 153 -134 28 -165
34 -195 38 -19 3 -57 8 -83 11 -44 6 -324 14 -330 9z m1798 -520 c55 -21 105
-66 131 -120 23 -47 27 -69 27 -137 0 -72 -30 -227 -50 -260 -3 -5 -18 13 -33
40 -66 115 -183 265 -298 381 -40 41 -71 76 -69 78 3 3 35 11 73 18 71 14 183
14 219 0z m-3421 -461 c-88 -140 -186 -358 -224 -495 -7 -27 -16 -48 -21 -48
-12 0 -92 116 -121 175 -49 99 -60 195 -30 265 36 86 152 149 317 173 144 21
139 25 79 -70z m3772 -1598 c108 -185 81 -326 -76 -405 -39 -20 -130 -50 -152
-50 -4 0 15 45 42 100 28 54 50 105 50 113 0 7 4 17 9 22 11 12 71 181 71 200
0 17 18 65 24 65 3 0 17 -20 32 -45z m-3498 -889 c77 -79 159 -152 232 -207
56 -42 59 -38 -35 -57 -44 -9 -174 -8 -219 2 -76 18 -145 75 -186 157 -34 66
-27 164 19 282 l11 29 56 -69 c30 -37 85 -99 122 -137z"/>
<path d="M1704 379 c-68 -19 -105 -107 -69 -163 61 -93 198 -61 210 49 4 31
-21 82 -48 100 -32 20 -55 24 -93 14z"/>
</g>
</svg>
