<?xml version="1.0" standalone="no"?>
<!DOCTYPE svg PUBLIC "-//W3C//DTD SVG 20010904//EN"
 "http://www.w3.org/TR/2001/REC-SVG-20010904/DTD/svg10.dtd">
<svg version="1.0" xmlns="http://www.w3.org/2000/svg"
 width="1024.000000pt" height="1024.000000pt" viewBox="0 0 1024.000000 1024.000000"
 preserveAspectRatio="xMidYMid meet">
<metadata>
Created by potrace 1.11, written by Peter Selinger 2001-2013
</metadata>
<g transform="translate(0.000000,1024.000000) scale(0.100000,-0.100000)"
fill="#000000" stroke="none">
<path d="M4875 9599 c-915 -48 -1817 -389 -2535 -957 -783 -620 -1337 -1480
-1575 -2445 -196 -798 -172 -1629 72 -2417 201 -650 571 -1276 1042 -1762
l114 -118 263 0 c145 0 263 3 263 8 -1 4 -1 53 0 110 l1 102 30 0 30 0 0 1404
0 1405 -42 3 -43 3 -47 360 c-26 198 -47 372 -47 388 l-1 27 445 0 c335 0 445
-3 445 -12 0 -19 -90 -721 -95 -745 -5 -19 -12 -23 -45 -23 l-40 0 0 -1405 0
-1405 30 0 30 0 0 -110 0 -110 440 0 440 0 0 110 0 110 30 0 30 0 0 1404 0
1405 -42 3 -43 3 -47 365 c-26 201 -47 375 -48 388 l0 22 445 0 445 0 -1 -22
c0 -13 -21 -187 -47 -388 l-48 -365 -42 -3 -42 -3 0 -1405 0 -1404 30 0 30 0
0 -110 0 -110 420 0 420 0 0 110 0 110 30 0 30 0 0 1404 0 1405 -42 3 -43 3
-47 360 c-25 198 -47 372 -47 388 l-1 27 445 0 445 0 -1 -22 c0 -13 -21 -187
-47 -388 l-48 -365 -42 -3 -42 -3 0 -1405 0 -1404 30 0 30 0 0 -110 0 -110
440 0 440 0 0 110 0 110 30 0 30 0 0 1404 0 1405 -42 3 -42 3 -48 365 c-26
201 -47 375 -48 388 l0 22 445 0 445 0 0 -22 c-1 -13 -22 -187 -48 -388 l-47
-365 -43 -3 -42 -3 0 -1405 0 -1404 30 0 30 0 1 -102 c1 -57 1 -106 0 -110 0
-5 118 -8 263 -8 l263 0 110 113 c1061 1095 1485 2685 1117 4184 -276 1127
-990 2110 -1986 2734 -173 108 -524 286 -707 357 -475 186 -932 285 -1442 312
-212 11 -243 11 -464 -1z m1228 -2400 c535 -348 1205 -783 1490 -968 l518
-336 -1496 -3 c-822 -1 -2168 -1 -2991 0 l-1495 3 763 468 c719 440 805 496
1488 967 399 274 731 499 738 499 7 1 450 -283 985 -630z"/>
<path d="M5044 7170 c-108 -23 -215 -108 -262 -208 -24 -50 -27 -70 -27 -157
0 -93 2 -105 33 -167 90 -184 312 -257 500 -166 64 31 138 107 170 176 24 50
27 69 27 157 0 90 -3 106 -29 159 -75 152 -252 240 -412 206z"/>
</g>
</svg>
