<?xml version="1.0" standalone="no"?>
<!DOCTYPE svg PUBLIC "-//W3C//DTD SVG 20010904//EN"
 "http://www.w3.org/TR/2001/REC-SVG-20010904/DTD/svg10.dtd">
<svg version="1.0" xmlns="http://www.w3.org/2000/svg"
 width="1000.000000pt" height="1000.000000pt" viewBox="0 0 1000.000000 1000.000000"
 preserveAspectRatio="xMidYMid meet">
<metadata>
Created by potrace 1.11, written by Peter Selinger 2001-2013
</metadata>
<g transform="translate(0.000000,1000.000000) scale(0.100000,-0.100000)"
fill="#000000" stroke="none">
<path d="M4750 9056 c-30 -6 -77 -23 -105 -37 -37 -19 -1073 -762 -1295 -929
-38 -28 -445 -323 -471 -340 -12 -8 -34 -24 -48 -36 -14 -11 -116 -85 -226
-164 -305 -220 -318 -230 -362 -296 -64 -97 -71 -138 -72 -423 -1 -140 -3
-256 -4 -257 -1 -2 -41 8 -87 22 -87 25 -302 78 -355 88 -277 48 -304 53 -408
61 -37 4 -78 8 -90 11 -12 2 -113 7 -223 10 l-202 7 4 -84 c5 -138 14 -312 19
-359 10 -93 16 -135 20 -150 2 -8 6 -40 10 -70 21 -210 118 -609 201 -835 181
-486 429 -822 747 -1009 43 -25 80 -46 82 -46 2 0 28 -11 57 -24 55 -26 113
-46 186 -65 l42 -12 1 -792 c0 -436 3 -805 5 -822 3 -16 21 -64 41 -104 58
-122 95 -150 473 -367 l335 -191 6 -109 c4 -60 11 -125 16 -144 35 -126 141
-237 273 -286 55 -20 181 -27 235 -13 109 28 220 107 271 194 27 47 66 154 60
164 -3 4 -1 12 3 19 7 12 48 20 171 37 25 3 56 8 70 10 14 2 45 7 70 10 25 3
56 8 70 10 63 9 117 17 141 21 15 2 46 6 70 9 23 3 101 14 173 25 72 10 154
22 181 25 28 4 57 8 65 10 8 2 41 7 73 10 l57 7 1 -54 c4 -314 206 -622 552
-838 211 -133 499 -242 777 -295 228 -43 352 -53 630 -50 135 2 254 5 265 8
11 3 51 8 90 12 38 4 72 8 75 10 3 1 28 6 55 9 28 4 66 11 85 16 19 5 46 11
60 13 37 7 105 25 192 52 329 103 601 262 787 461 148 158 238 339 258 519 3
33 6 321 6 640 -1 495 -3 591 -17 657 -17 78 -56 183 -94 250 -18 32 -21 55
-23 200 -3 219 -22 283 -115 387 -89 99 -228 173 -389 207 -73 16 -116 19
-246 18 l-145 -1 0 1541 c-1 848 -4 1559 -7 1581 -20 136 -119 270 -246 333
-63 31 -65 34 -110 125 -176 353 -518 633 -1011 827 -58 23 -114 45 -125 50
-59 27 -420 137 -506 155 -8 2 -44 10 -80 18 -35 9 -80 19 -99 23 -19 4 -39 9
-45 10 -33 8 -267 53 -300 59 -34 5 -43 12 -60 47 -24 51 -96 125 -155 163
-97 61 -227 85 -340 61z"/>
</g>
</svg>
