<?xml version="1.0" standalone="no"?>
<!DOCTYPE svg PUBLIC "-//W3C//DTD SVG 20010904//EN"
 "http://www.w3.org/TR/2001/REC-SVG-20010904/DTD/svg10.dtd">
<svg version="1.0" xmlns="http://www.w3.org/2000/svg"
 width="512.000000pt" height="512.000000pt" viewBox="0 0 512.000000 512.000000"
 preserveAspectRatio="xMidYMid meet">
<metadata>
Created by potrace 1.14, written by Peter Selinger 2001-2017
</metadata>
<g transform="translate(0.000000,512.000000) scale(0.100000,-0.100000)"
fill="#000000" stroke="none">
<path d="M1015 5106 c-126 -40 -217 -129 -252 -245 -15 -51 -17 -159 -19
-1126 -1 -588 -2 -1073 -3 -1078 0 -4 -61 -7 -135 -6 -74 0 -150 -3 -169 -6
-38 -7 -80 -45 -95 -85 -5 -14 -8 -365 -8 -797 1 -768 1 -772 22 -800 41 -55
65 -62 234 -65 l155 -3 1 -290 c0 -198 5 -304 13 -335 29 -103 97 -183 201
-233 l65 -32 1740 0 1740 0 65 31 c70 33 127 85 165 149 53 89 52 70 49 1165
-1 558 -3 1304 -4 1658 0 353 -4 642 -8 642 -5 0 -17 8 -28 18 -10 10 -93 80
-184 156 -91 76 -176 148 -190 160 -14 11 -63 52 -110 91 -47 38 -87 72 -90
75 -3 4 -113 96 -245 205 -132 110 -242 202 -245 205 -3 3 -113 95 -245 205
-132 109 -242 202 -245 205 -3 3 -44 38 -92 78 l-87 72 -978 -1 c-756 0 -987
-3 -1018 -13z"/>
</g>
</svg>
