<?xml version="1.0" standalone="no"?>
<!DOCTYPE svg PUBLIC "-//W3C//DTD SVG 20010904//EN"
 "http://www.w3.org/TR/2001/REC-SVG-20010904/DTD/svg10.dtd">
<svg version="1.0" xmlns="http://www.w3.org/2000/svg"
 width="512.000000pt" height="512.000000pt" viewBox="0 0 512.000000 512.000000"
 preserveAspectRatio="xMidYMid meet">
<metadata>
Created by potrace 1.11, written by Peter Selinger 2001-2013
</metadata>
<g transform="translate(0.000000,512.000000) scale(0.100000,-0.100000)"
fill="#000000" stroke="none">
<path d="M543 5106 c-70 -22 -101 -48 -295 -243 -152 -153 -192 -199 -215
-248 l-28 -60 0 -1135 0 -1135 29 -62 c33 -73 107 -147 181 -184 50 -24 51
-24 444 -29 l393 -5 60 -95 c151 -240 361 -431 604 -550 46 -23 84 -43 84 -46
0 -3 -25 -33 -55 -66 -133 -147 -205 -389 -175 -589 49 -341 297 -591 640
-649 140 -24 293 1 435 69 97 46 951 539 1018 587 26 19 71 45 100 58 72 31
967 549 1043 602 78 55 153 137 205 224 245 413 50 940 -409 1104 -83 30 -94
31 -237 31 -118 0 -163 -4 -210 -19 -60 -19 -194 -83 -271 -130 l-41 -26 -6
198 c-7 260 -37 393 -134 601 -111 241 -318 475 -549 623 -185 118 -421 196
-676 223 l-57 6 -3 337 c-3 325 -4 339 -27 395 -25 64 -104 152 -161 182 -85
44 -97 45 -890 44 -592 0 -764 -3 -797 -13z m87 -316 c0 -65 -3 -125 -6 -134
-5 -14 -29 -16 -162 -16 l-157 0 125 126 c114 115 172 160 192 148 5 -3 8 -59
8 -124z m1496 109 c26 -12 53 -36 66 -57 23 -36 23 -43 26 -363 l3 -327 -58
-6 c-96 -12 -279 -63 -380 -107 -184 -81 -324 -178 -468 -324 -203 -205 -333
-450 -396 -745 -19 -87 -23 -136 -23 -285 0 -186 12 -283 53 -416 l19 -60
-333 3 c-379 3 -368 1 -413 88 l-22 44 2 1046 3 1045 240 5 c257 5 272 8 322
62 51 55 63 102 63 266 l0 152 627 0 c613 0 628 0 669 -21z m490 -969 c47 -9
86 -19 88 -21 11 -11 111 -253 141 -339 34 -99 34 -100 12 -95 -231 50 -625
56 -909 13 -43 -6 -80 -9 -83 -6 -8 7 75 227 130 344 l42 90 94 17 c52 10 117
19 144 21 87 6 253 -5 341 -24z m-877 -182 c-37 -93 -57 -151 -83 -238 l-26
-86 -117 -35 c-65 -20 -149 -48 -187 -62 -80 -31 -80 -31 -8 76 89 134 262
297 395 373 23 13 43 24 44 24 2 0 -7 -24 -18 -52z m1391 -47 c128 -95 232
-208 324 -353 l36 -57 -42 16 c-24 9 -110 39 -193 67 l-149 51 -37 115 c-20
63 -48 146 -63 184 -14 37 -26 70 -26 73 0 8 72 -38 150 -96z m-355 -420 c72
-12 137 -24 146 -26 12 -4 21 -31 33 -98 55 -318 55 -651 0 -958 l-16 -86 -71
-12 c-247 -42 -439 -54 -656 -41 -159 10 -399 44 -413 58 -3 4 -14 57 -23 117
-27 173 -37 206 -68 229 -43 32 -93 27 -130 -14 -29 -32 -29 -36 -24 -104 4
-39 9 -95 13 -124 l7 -52 -103 35 c-56 20 -154 59 -216 87 -127 56 -118 45
-145 188 -28 156 -3 496 40 539 22 22 199 100 330 145 l100 35 -6 -34 c-16
-99 98 -166 167 -97 25 26 50 99 50 151 0 29 19 38 125 55 187 30 260 35 495
31 177 -3 267 -9 365 -24z m476 -120 c81 -28 311 -123 337 -139 41 -27 63
-396 33 -565 l-14 -78 -92 -54 c-51 -30 -113 -64 -140 -75 -81 -35 -215 -80
-215 -72 0 4 7 50 16 102 25 150 30 544 10 710 -9 74 -19 150 -22 168 -4 17
-4 32 -2 32 2 0 42 -13 89 -29z m1231 -682 c151 -31 297 -144 371 -286 86
-165 86 -339 2 -510 -66 -134 -111 -169 -535 -414 -206 -119 -376 -215 -378
-214 -2 1 2 22 8 46 6 24 14 73 18 107 l7 64 298 171 c163 95 319 191 345 213
30 26 60 66 82 110 33 65 35 73 35 174 0 101 -2 108 -34 168 -43 80 -124 154
-199 183 -76 30 -196 32 -267 5 -49 -19 -909 -511 -991 -567 -116 -80 -182
-239 -154 -376 17 -81 64 -166 122 -218 l49 -44 -72 -42 c-40 -23 -77 -42 -84
-43 -18 -2 -103 102 -135 164 -123 245 -45 553 181 707 57 39 874 510 957 552
34 17 86 38 115 46 63 17 187 19 259 4z m-46 -378 c23 -10 54 -36 70 -56 56
-74 39 -202 -33 -253 -47 -32 -524 -305 -527 -301 -1 2 -25 51 -53 109 -28 58
-69 126 -92 152 l-41 46 57 35 c171 102 470 271 492 277 43 14 84 10 127 -9z
m-2932 -121 l118 -37 58 -169 c31 -93 61 -178 65 -188 8 -18 5 -18 -32 3 -152
86 -316 248 -427 423 l-36 57 67 -26 c38 -14 121 -43 187 -63z m466 -106 c125
-20 525 -30 649 -15 52 6 96 9 97 8 3 -3 -680 -397 -688 -397 -7 0 -58 106
-90 185 -56 140 -87 235 -75 235 6 0 55 -7 107 -16z m1658 -229 c117 -133 167
-328 126 -494 -35 -140 -121 -265 -236 -339 -78 -50 -874 -510 -948 -547 -91
-46 -147 -59 -255 -58 -163 0 -290 56 -401 176 -98 106 -148 232 -147 377 1
153 56 283 164 390 63 63 185 137 749 457 l57 32 -15 -82 c-20 -116 -21 -121
-29 -133 -5 -6 -132 -82 -283 -170 -313 -180 -336 -195 -386 -255 -67 -80 -95
-177 -83 -290 14 -132 96 -241 227 -302 58 -27 77 -31 147 -30 56 0 96 6 132
20 29 12 262 142 519 289 513 296 543 317 597 431 29 61 32 77 32 158 0 81 -3
97 -32 158 -20 42 -52 87 -84 118 -28 27 -48 53 -45 57 14 13 131 80 143 81 6
1 29 -19 51 -44z m-301 -231 c18 -14 40 -38 48 -54 16 -31 21 -100 7 -100 -12
0 -49 36 -69 66 -16 24 -35 114 -25 114 3 0 20 -11 39 -26z m-542 -319 c17
-38 55 -100 83 -136 l51 -66 -272 -157 c-258 -149 -274 -156 -325 -156 -71 0
-126 30 -159 88 -21 36 -25 52 -21 102 7 95 25 110 328 286 254 147 265 152
274 131 5 -12 23 -53 41 -92z"/>
<path d="M485 4118 c-62 -34 -74 -110 -26 -159 l29 -29 427 0 427 0 29 29 c49
49 35 128 -28 160 -30 15 -830 15 -858 -1z"/>
<path d="M503 3469 c-73 -22 -95 -104 -44 -161 l29 -33 167 -3 c92 -2 182 -1
200 2 82 16 112 105 56 168 l-29 33 -174 2 c-95 1 -187 -2 -205 -8z"/>
<path d="M485 2809 c-35 -20 -55 -53 -55 -92 0 -31 7 -45 31 -68 31 -29 32
-29 155 -29 139 0 166 8 189 57 20 42 13 82 -21 114 -24 22 -34 24 -152 27
-82 1 -134 -2 -147 -9z"/>
<path d="M1595 2846 c-35 -15 -58 -53 -58 -95 0 -102 141 -132 188 -40 24 45
7 102 -38 129 -37 23 -51 24 -92 6z"/>
</g>
</svg>
