<?xml version="1.0" standalone="no"?>
<!DOCTYPE svg PUBLIC "-//W3C//DTD SVG 20010904//EN"
 "http://www.w3.org/TR/2001/REC-SVG-20010904/DTD/svg10.dtd">
<svg version="1.0" xmlns="http://www.w3.org/2000/svg"
 width="1200.000000pt" height="1200.000000pt" viewBox="0 0 1200.000000 1200.000000"
 preserveAspectRatio="xMidYMid meet">
<metadata>
Created by potrace 1.11, written by Peter Selinger 2001-2013
</metadata>
<g transform="translate(0.000000,1200.000000) scale(0.100000,-0.100000)"
fill="#000000" stroke="none">
<path d="M5860 11985 c-19 -7 -825 -355 -1790 -773 -965 -418 -1995 -863
-2287 -990 -380 -164 -556 -246 -615 -285 -150 -97 -250 -220 -301 -367 l-22
-65 -3 -3490 c-2 -3167 -1 -3497 14 -3570 50 -252 230 -443 577 -614 267 -132
538 -210 902 -257 200 -27 559 -25 733 4 74 12 138 24 143 27 5 4 9 1260 9
3189 0 3490 -4 3241 59 3427 119 351 386 618 801 797 2075 899 4132 1793 4150
1802 15 8 16 16 9 57 -29 153 -149 263 -290 263 -70 0 344 176 -3109 -1320
-822 -356 -1530 -659 -1573 -673 -110 -37 -264 -65 -432 -78 -314 -25 -726 39
-1038 161 -106 42 -267 127 -267 142 0 5 10 12 23 17 20 8 690 298 1927 833
1415 613 2127 921 2145 928 16 6 98 -25 320 -120 l300 -128 3 396 c3 445 -1
477 -64 569 -75 109 -213 160 -324 118z"/>
<path d="M8750 10406 c-99 -40 -262 -111 -1470 -634 -267 -115 -1054 -456
-1750 -757 -696 -300 -1298 -564 -1338 -586 -148 -79 -262 -186 -325 -306 -73
-140 -67 198 -67 -3688 0 -3845 -4 -3555 60 -3690 154 -322 659 -595 1296
-699 482 -79 903 -52 1279 82 61 21 580 243 1155 492 575 249 1587 688 2250
975 l1205 521 58 56 57 57 0 3604 0 3604 -30 38 c-66 83 -145 120 -242 113
-56 -4 -183 -56 -1218 -505 -2913 -1263 -3407 -1475 -3485 -1498 -434 -125
-1022 -81 -1475 113 -90 38 -196 95 -218 116 -10 10 388 186 2047 904 l2060
891 301 -128 c218 -93 303 -125 306 -116 3 7 4 195 2 417 -3 397 -4 404 -27
463 -34 84 -118 167 -191 189 -84 25 -124 20 -240 -28z"/>
</g>
</svg>
