<svg version="1" xmlns="http://www.w3.org/2000/svg" width="1058.667" height="1058.667" viewBox="0 0 794.000000 794.000000"><path d="M369.8 27.5c-.2.2-13.8.6-30.3 1-16.5.3-33.1.8-37 1-3.8.2-14.2.6-23 1s-17.6.8-19.5 1c-1.9.2-8 .6-13.5 1-5.5.3-11.1.8-12.5 1-1.4.2-5.4.6-9 1-3.6.3-8.7.8-11.5 1.2-2.7.3-6.1.7-7.5.8-1.4.1-8.3 1.2-15.5 2.5C130 49.2 98.7 66.6 76 103c-10.2 16.2-17.7 33.9-43.5 102.5-4.8 12.6-9.5 24.9-10.6 27.2-1 2.3-1.9 4.8-1.9 5.5 0 .8-.4 1.8-.8 2.4-.5.5-1.8 3.3-3 6.1l-2.1 5.3 2.7.1c2.9.2 4.8.3 17.7 1.3l8.1.7 6.3-9.8c3.5-5.4 10.2-16.3 14.9-24.3 10.8-18.5 17.4-27.3 28.6-38.3 18.8-18.5 43.6-31 71.6-36.3 1.4-.2 4.5-.9 7-1.4 11.7-2.3 52.3-3.4 69-1.8 3.6.4 8 .7 9.8.7l3.4.1-.7 19.7c-.8 27.3-1.8 46.6-3 59.8-.3 2.7-.7 8-1 11.6-.3 3.7-.7 8.2-.9 10-.9 6.2-2 17.4-1.8 18.1.1.4-.3 3.1-.8 6s-1.2 7.7-1.5 10.7c-.3 3-.9 8.2-1.4 11.5-.6 3.4-1.2 7.9-1.6 10.1-1.7 11.6-5.4 31.6-8.1 44.5-1.4 6.3-2.7 12.6-3 14-.7 3.5-7.9 31.4-9.7 37.5-.8 2.7-2.3 7.5-3.2 10.5-.9 3-1.7 5.9-1.9 6.5-.2.5-.6 1.7-.9 2.5-.3.8-1 3.1-1.5 5-3.5 12.5-16.8 45.8-26.6 66.5-17.9 37.7-34.2 64.1-68.6 111-8.8 12.1-18.1 25.1-20.7 29-2.5 3.8-5.3 8.1-6.3 9.5-4.4 6.5-11.1 22.2-12.8 30-4 18.9 1.4 43.3 13.5 61.7 4 6.1 13 15.6 19.1 20.2 5.3 4.1 19.1 11.3 25.7 13.4 17.7 5.7 31.2 5.5 55.5-.7 11.1-2.9 26-12.4 36.8-23.6 20.6-21.3 38.2-63.7 47.5-114 .3-1.4.8-3.6 1.1-5 .3-1.4.8-3.9 1.1-5.5.3-1.7 1-5.7 1.6-9 1.9-10.6 4.4-25.3 5.4-32.8.4-2.7.8-5.6.9-6.5.5-2.5 1.5-10 2.1-15.7.3-2.8.8-6.1 1-7.5.3-1.4.7-4.8 1-7.5.3-2.8 1-8.4 1.5-12.5s1.2-10 1.5-13c1.2-11.3 1.5-14.6 2-19 .2-2.5.7-6.8 1-9.5.3-2.8.8-7 1-9.5.4-4.4.7-6.7 2.1-21.5.4-3.9.8-8.1.9-9.5.2-1.4.6-6.1.9-10.5.4-4.4.9-9.4 1.1-11 .2-1.7.7-6.6 1-11 .4-4.4.8-9.6 1-11.5.2-1.9.6-7.6 1-12.5.3-5 .8-10.1 1-11.5.2-1.4.7-6.3 1-11 .3-4.7.7-9.6 1-11 .2-1.4.7-6.9 1-12.4.4-5.4.8-10.6 1-11.5.1-.9.6-6.2.9-11.8.4-5.6.9-11.1 1.1-12.1.2-1.1.6-6.2 1-11.4.3-5.1.8-10.9 1-12.8.2-1.9.6-6.4.9-10 1.2-14.9 1.7-20.7 2.1-24 .2-1.9.6-7.1 1-11.5.9-12.4 1.5-18.6 2-24 .3-2.8.7-7.7 1-11 .3-3.3.7-8.3 1-11 .2-2.8.7-7.9 1-11.5.3-3.6.8-8.3 1-10.5.3-2.2.7-7.8 1.1-12.5.3-4.7.8-8.7 1.1-9 .2-.3 38.2-.5 84.4-.5l83.9-.1-.5 7.1c-.2 3.8-.7 11-1 16-.3 4.9-.7 11-1 13.5-.2 2.5-.7 8.5-1 13.5-.3 4.9-.8 11-1 13.5-.3 2.5-.7 8.1-1 12.5-.4 4.4-.8 9.6-1 11.5-.2 1.9-.6 7.1-1 11.5-.3 4.4-.8 9.8-1 12-.2 2.2-.7 6.9-1 10.5-.3 3.6-.8 8.1-1 10-.2 1.9-.7 6.4-1 10-.3 3.6-.8 8.5-1 11-.2 2.5-.7 7.4-1 11-.3 3.6-.8 8.3-1 10.5-.7 5.7-1.5 13.1-2 19.5-.3 3-.7 7.5-1 10-.2 2.5-.7 7.4-1 11-.4 3.6-.8 7.6-1 9-.2 1.4-.7 6.1-1.1 10.5-.4 4.4-.8 9.3-.9 11-.2 1.6-.6 6.6-1 11-1 11.5-1.2 13.3-1.9 20-.3 3.3-.8 8.2-1.1 11-1.3 15.5-1.7 20.4-2.1 24-.2 2.2-.6 7.3-.9 11.5-.3 4.1-.7 9.7-1 12.5-.3 2.7-.7 8.6-1 13-.5 8-1.2 17.7-2 29-.3 3.3-.7 12.1-1.1 19.5-.3 7.4-.8 15.1-1 17-.2 1.9-.6 18.1-.8 36-.4 28.9-.3 33.9 1.5 45 6 38.2 19.5 66.7 42.2 89.2 19.6 19.4 44.3 31.7 74 36.9 17 3 44.1 3.1 59.2.4 41.4-7.7 74.7-31.2 101-71.5 11.5-17.5 21.4-38.4 28.7-60.5 3.6-11 8.7-30.1 10.2-38.5.3-1.9.8-4.4 1-5.5.2-1.1.7-4.2 1-6.8.4-2.7.9-5.7 1.1-6.8.4-1.8 1.5-15.5 1.9-23.1.1-2.1-.2-3.9-.8-4.1-.6-.1-7.2-.3-14.6-.2h-13.5l-.6 7c-4.8 51.7-30.3 82.4-74.4 89.2-7.7 1.2-26.1.6-34.1-1.2-7.2-1.5-9.7-2.4-17.4-5.8-9.7-4.3-21.5-14.8-28.4-25.1-7.9-11.9-15.1-31.1-18.2-48.6-.2-1.4-.6-3.6-.9-5-.3-1.4-.7-4.8-1.1-7.5-.3-2.8-.7-6.1-.9-7.4-2.6-16-2.6-71.5 0-107.6.2-2.8.7-8.8 1-13.5.6-9 1.1-14.8 2-24.5.3-3.3.8-8 1-10.5.2-2.5.7-7.2 1-10.5.3-3.3.8-8.5 1-11.5.3-3 .7-7.5 1-10 .5-4.5 1.1-10.8 2.1-21 .2-3 .7-7.3.9-9.5.4-4.2 1.2-11.9 2-21 .9-9.7 1.6-16.9 2-20.5.3-1.9.7-6.9 1-11 .3-4.1.8-9.5 1-12 .2-2.5.7-8.3 1.1-13 .3-4.7.7-10.3.9-12.5.2-3.6 1-15.5 2.1-31.2.2-3.2.6-16.4 1-29.3.3-12.9.7-24.6.8-26l.1-2.4 63.5.3c34.9.1 76 .3 91.3.5 18.3.1 27.7-.2 27.8-.9.2-2-.8-114.1-1-115.5-.2-.8-408.5-2.3-409.3-1.5z"/></svg>