<?xml version="1.0" standalone="no"?>
<!DOCTYPE svg PUBLIC "-//W3C//DTD SVG 20010904//EN"
 "http://www.w3.org/TR/2001/REC-SVG-20010904/DTD/svg10.dtd">
<svg version="1.0" xmlns="http://www.w3.org/2000/svg"
 width="794.000000pt" height="794.000000pt" viewBox="0 0 794.000000 794.000000"
 preserveAspectRatio="xMidYMid meet">
<metadata>
Created by potrace 1.11, written by Peter Selinger 2001-2013
</metadata>
<g transform="translate(0.000000,794.000000) scale(0.100000,-0.100000)"
fill="#000000" stroke="none">
<path d="M3698 7665 c-2 -2 -138 -6 -303 -10 -165 -3 -331 -8 -370 -10 -38 -2
-142 -6 -230 -10 -88 -4 -176 -8 -195 -10 -19 -2 -80 -6 -135 -10 -55 -3 -111
-8 -125 -10 -14 -2 -54 -6 -90 -10 -36 -3 -87 -8 -115 -12 -27 -3 -61 -7 -75
-8 -14 -1 -83 -12 -155 -25 -605 -102 -918 -276 -1145 -640 -102 -162 -177
-339 -435 -1025 -48 -126 -95 -249 -106 -272 -10 -23 -19 -48 -19 -55 0 -8 -4
-18 -8 -24 -5 -5 -18 -33 -30 -61 l-21 -53 27 -1 c29 -2 48 -3 177 -13 l81 -7
63 98 c35 54 102 163 149 243 108 185 174 273 286 383 188 185 436 310 716
363 14 2 45 9 70 14 117 23 523 34 690 18 36 -4 80 -7 98 -7 l34 -1 -7 -197
c-8 -273 -18 -466 -30 -598 -3 -27 -7 -80 -10 -116 -3 -37 -7 -82 -9 -100 -9
-62 -20 -174 -18 -181 1 -4 -3 -31 -8 -60 -5 -29 -12 -77 -15 -107 -3 -30 -9
-82 -14 -115 -6 -34 -12 -79 -16 -101 -17 -116 -54 -316 -81 -445 -14 -63 -27
-126 -30 -140 -7 -35 -79 -314 -97 -375 -8 -27 -23 -75 -32 -105 -9 -30 -17
-59 -19 -65 -2 -5 -6 -17 -9 -25 -3 -8 -10 -31 -15 -50 -35 -125 -168 -458
-266 -665 -179 -377 -342 -641 -686 -1110 -88 -121 -181 -251 -207 -290 -25
-38 -53 -81 -63 -95 -44 -65 -111 -222 -128 -300 -40 -189 14 -433 135 -617
40 -61 130 -156 191 -202 53 -41 191 -113 257 -134 177 -57 312 -55 555 7 111
29 260 124 368 236 206 213 382 637 475 1140 3 14 8 36 11 50 3 14 8 39 11 55
3 17 10 57 16 90 19 106 44 253 54 328 4 27 8 56 9 65 5 25 15 100 21 157 3
28 8 61 10 75 3 14 7 48 10 75 3 28 10 84 15 125 5 41 12 100 15 130 12 113
15 146 20 190 2 25 7 68 10 95 3 28 8 70 10 95 4 44 7 67 21 215 4 39 8 81 9
95 2 14 6 61 9 105 4 44 9 94 11 110 2 17 7 66 10 110 4 44 8 96 10 115 2 19
6 76 10 125 3 50 8 101 10 115 2 14 7 63 10 110 3 47 7 96 10 110 2 14 7 69
10 124 4 54 8 106 10 115 1 9 6 62 9 118 4 56 9 111 11 121 2 11 6 62 10 114
3 51 8 109 10 128 2 19 6 64 9 100 12 149 17 207 21 240 2 19 6 71 10 115 9
124 15 186 20 240 3 28 7 77 10 110 3 33 7 83 10 110 2 28 7 79 10 115 3 36 8
83 10 105 3 22 7 78 11 125 3 47 8 87 11 90 2 3 382 5 844 5 l839 1 -5 -71
c-2 -38 -7 -110 -10 -160 -3 -49 -7 -110 -10 -135 -2 -25 -7 -85 -10 -135 -3
-49 -8 -110 -10 -135 -3 -25 -7 -81 -10 -125 -4 -44 -8 -96 -10 -115 -2 -19
-6 -71 -10 -115 -3 -44 -8 -98 -10 -120 -2 -22 -7 -69 -10 -105 -3 -36 -8 -81
-10 -100 -2 -19 -7 -64 -10 -100 -3 -36 -8 -85 -10 -110 -2 -25 -7 -74 -10
-110 -3 -36 -8 -83 -10 -105 -7 -57 -15 -131 -20 -195 -3 -30 -7 -75 -10 -100
-2 -25 -7 -74 -10 -110 -4 -36 -8 -76 -10 -90 -2 -14 -7 -61 -11 -105 -4 -44
-8 -93 -9 -110 -2 -16 -6 -66 -10 -110 -10 -115 -12 -133 -19 -200 -3 -33 -8
-82 -11 -110 -13 -155 -17 -204 -21 -240 -2 -22 -6 -73 -9 -115 -3 -41 -7 -97
-10 -125 -3 -27 -7 -86 -10 -130 -5 -80 -12 -177 -20 -290 -3 -33 -7 -121 -11
-195 -3 -74 -8 -151 -10 -170 -2 -19 -6 -181 -8 -360 -4 -289 -3 -339 15 -450
60 -382 195 -667 422 -892 196 -194 443 -317 740 -369 170 -30 441 -31 592 -4
414 77 747 312 1010 715 115 175 214 384 287 605 36 110 87 301 102 385 3 19
8 44 10 55 2 11 7 42 10 68 4 27 9 57 11 68 4 18 15 155 19 231 1 21 -2 39 -8
41 -6 1 -72 3 -146 2 l-135 0 -6 -70 c-48 -517 -303 -824 -744 -892 -77 -12
-261 -6 -341 12 -72 15 -97 24 -174 58 -97 43 -215 148 -284 251 -79 119 -151
311 -182 486 -2 14 -6 36 -9 50 -3 14 -7 48 -11 75 -3 28 -7 61 -9 74 -26 160
-26 715 0 1076 2 28 7 88 10 135 6 90 11 148 20 245 3 33 8 80 10 105 2 25 7
72 10 105 3 33 8 85 10 115 3 30 7 75 10 100 5 45 11 108 21 210 2 30 7 73 9
95 4 42 12 119 20 210 9 97 16 169 20 205 3 19 7 69 10 110 3 41 8 95 10 120
2 25 7 83 11 130 3 47 7 103 9 125 2 36 10 155 21 312 2 32 6 164 10 293 3
129 7 246 8 260 l1 24 635 -3 c349 -1 760 -3 913 -5 183 -1 277 2 278 9 2 20
-8 1141 -10 1155 -2 8 -4085 23 -4093 15z"/>
</g>
</svg>
