<?xml version="1.0" standalone="no"?>
<!DOCTYPE svg PUBLIC "-//W3C//DTD SVG 20010904//EN"
 "http://www.w3.org/TR/2001/REC-SVG-20010904/DTD/svg10.dtd">
<svg version="1.0" xmlns="http://www.w3.org/2000/svg"
 width="512.000000pt" height="512.000000pt" viewBox="0 0 512.000000 512.000000"
 preserveAspectRatio="xMidYMid meet">
<metadata>
Created by potrace 1.11, written by Peter Selinger 2001-2013
</metadata>
<g transform="translate(0.000000,512.000000) scale(0.100000,-0.100000)"
fill="#000000" stroke="none">
<path d="M888 4283 c-222 -37 -406 -217 -453 -441 -22 -102 -21 -2465 0 -2567
44 -209 205 -375 416 -430 59 -16 199 -17 1709 -17 905 1 1654 3 1665 5 171
39 293 120 381 251 41 62 73 142 82 206 4 25 7 605 7 1290 l0 1245 -22 70
c-43 137 -148 264 -273 329 -139 74 -12 69 -1817 70 -1236 1 -1639 -2 -1695
-11z m3305 -354 c47 -12 109 -67 133 -117 16 -35 18 -108 18 -1242 1 -1316 4
-1256 -56 -1319 -15 -15 -44 -37 -65 -47 -37 -18 -93 -19 -1648 -21 -1007 -1
-1624 2 -1648 8 -47 12 -109 67 -133 117 -17 35 -18 104 -19 1232 0 727 4
1212 9 1239 13 55 77 127 130 145 32 11 335 14 1640 14 1022 0 1615 -3 1639
-9z"/>
<path d="M1373 3400 c-40 -9 -112 -51 -140 -82 -48 -53 -68 -108 -68 -193 1
-85 19 -136 67 -188 146 -154 408 -101 475 97 71 211 -117 418 -334 366z"/>
<path d="M3398 3237 c-20 -7 -63 -36 -95 -66 -32 -30 -119 -111 -193 -180 -74
-69 -164 -153 -199 -186 -36 -33 -75 -69 -86 -80 -12 -11 -75 -69 -140 -130
-65 -60 -124 -116 -131 -123 -10 -10 -61 20 -267 158 -140 93 -267 174 -282
180 -43 16 -107 12 -145 -11 -19 -12 -71 -58 -115 -104 -44 -46 -239 -246
-434 -444 -195 -199 -361 -370 -368 -381 -8 -11 -17 -42 -20 -68 -10 -84 26
-150 99 -185 35 -17 128 -18 1568 -17 1268 0 1536 2 1563 13 50 21 95 79 102
131 11 70 24 38 -228 556 -89 185 -140 289 -321 665 -54 110 -109 213 -124
228 -50 53 -110 67 -184 44z"/>
</g>
</svg>
