<?xml version="1.0" standalone="no"?>
<!DOCTYPE svg PUBLIC "-//W3C//DTD SVG 20010904//EN"
 "http://www.w3.org/TR/2001/REC-SVG-20010904/DTD/svg10.dtd">
<svg version="1.0" xmlns="http://www.w3.org/2000/svg"
 width="512.000000pt" height="512.000000pt" viewBox="0 0 512.000000 512.000000"
 preserveAspectRatio="xMidYMid meet">
<metadata>
Created by potrace 1.11, written by Peter Selinger 2001-2013
</metadata>
<g transform="translate(0.000000,512.000000) scale(0.100000,-0.100000)"
fill="#000000" stroke="none">
<path d="M38 5106 c-33 -25 -38 -64 -38 -324 0 -278 3 -296 53 -320 24 -12 27
-19 27 -60 0 -44 -3 -49 -30 -59 -17 -6 -34 -23 -40 -38 -7 -18 -9 -252 -8
-687 l3 -660 24 -19 c22 -18 43 -19 362 -19 l338 0 -26 -57 c-34 -77 -43 -205
-19 -284 62 -216 271 -352 486 -318 171 27 307 147 355 314 23 77 16 209 -14
278 -12 27 -21 53 -21 58 0 5 140 9 338 9 332 0 339 0 358 21 18 20 19 44 22
453 3 427 2 433 -18 459 -16 20 -30 27 -56 27 -28 0 -43 -9 -83 -50 -120 -124
-301 -131 -415 -16 -58 57 -79 107 -84 193 -3 60 0 80 21 125 42 92 114 149
208 166 100 19 192 -11 262 -85 23 -25 53 -49 66 -54 33 -13 75 5 90 37 8 17
11 153 11 440 0 436 -2 461 -45 478 -9 3 -488 6 -1063 6 -843 -1 -1050 -3
-1064 -14z"/>
<path d="M2954 4189 c-18 -20 -19 -43 -22 -354 l-3 -334 -42 19 c-111 49 -241
47 -352 -4 -76 -35 -122 -72 -172 -139 -128 -175 -104 -420 55 -569 110 -103
260 -141 407 -102 33 8 70 22 83 30 l22 14 0 -285 0 -285 -379 0 c-353 0 -380
-1 -402 -18 -39 -32 -30 -73 30 -136 65 -70 92 -132 93 -213 1 -242 -285 -371
-467 -211 -62 55 -87 107 -93 194 -4 62 -1 80 22 129 14 32 47 77 76 105 58
55 64 87 25 125 l-24 25 -435 0 -435 0 -20 -26 c-21 -26 -21 -35 -21 -641 l0
-614 25 -24 c31 -32 74 -33 103 -2 l22 23 0 567 0 567 279 0 279 0 -25 -67
c-103 -282 106 -583 405 -583 95 0 166 21 242 72 104 69 171 173 191 300 13
78 5 146 -25 221 l-24 57 279 0 279 0 0 -380 0 -381 25 -24 c41 -42 75 -34
144 34 73 72 132 95 224 89 74 -5 128 -29 179 -80 47 -47 67 -87 77 -149 22
-135 -51 -262 -177 -309 -110 -41 -221 -14 -306 76 -43 46 -56 54 -87 54 -29
0 -43 -6 -58 -26 -20 -26 -21 -37 -21 -405 l0 -379 -940 0 -940 0 0 279 0 280
-27 21 c-33 26 -79 21 -105 -11 -16 -19 -18 -51 -18 -346 l0 -324 25 -24 24
-25 2059 0 c2043 0 2058 0 2080 20 11 11 24 35 27 52 3 18 4 712 3 1541 l-3
1509 -24 19 c-17 14 -36 19 -60 17 -30 -2 -39 -9 -53 -38 -16 -32 -18 -77 -18
-487 l0 -453 -275 0 c-151 0 -275 4 -275 9 0 5 9 30 21 56 29 66 36 182 15
263 -56 220 -275 363 -493 323 -274 -50 -433 -335 -330 -591 l25 -60 -282 2
-281 3 -3 386 c-2 372 -3 387 -22 404 -37 34 -74 24 -138 -38 -76 -72 -117
-90 -212 -91 -59 0 -84 4 -116 21 -68 36 -105 74 -135 138 -77 161 14 350 189
391 103 24 196 -6 279 -91 58 -61 84 -68 127 -34 l26 20 0 385 0 384 940 0
939 0 3 -376 3 -376 29 -25 c33 -28 67 -25 101 8 19 19 20 33 20 448 0 408 -1
430 -19 450 l-19 21 -1052 0 -1052 0 -19 -21z"/>
</g>
</svg>
