<?xml version="1.0" standalone="no"?>
<!DOCTYPE svg PUBLIC "-//W3C//DTD SVG 20010904//EN"
 "http://www.w3.org/TR/2001/REC-SVG-20010904/DTD/svg10.dtd">
<svg version="1.0" xmlns="http://www.w3.org/2000/svg"
 width="400.000000pt" height="400.000000pt" viewBox="0 0 400.000000 400.000000"
 preserveAspectRatio="xMidYMid meet">
<metadata>
Created by potrace 1.11, written by Peter Selinger 2001-2013
</metadata>
<g transform="translate(0.000000,400.000000) scale(0.100000,-0.100000)"
fill="#000000" stroke="none">
<path d="M0 2000 l0 -2000 2000 0 2000 0 0 2000 0 2000 -2000 0 -2000 0 0
-2000z m3498 -691 c53 -7 100 -17 104 -23 10 -15 10 -176 0 -176 -5 0 -23 21
-40 46 -42 59 -101 86 -203 92 -87 5 -134 -7 -181 -46 -58 -49 -73 -124 -39
-197 27 -59 69 -89 236 -169 222 -107 265 -153 265 -291 0 -146 -87 -249 -239
-285 -94 -22 -359 8 -383 44 -11 16 -10 176 1 176 5 0 19 -20 31 -45 12 -25
33 -54 47 -65 57 -45 207 -64 295 -38 81 24 127 102 114 191 -13 86 -33 103
-233 202 -252 125 -288 163 -285 307 3 124 53 202 162 251 84 38 181 45 348
26z m-2868 -19 c0 -5 -10 -15 -22 -21 -45 -24 -47 -35 -48 -231 l0 -188 300 0
300 0 0 186 0 187 -35 33 c-19 18 -35 35 -35 38 0 3 61 6 135 6 74 0 135 -3
135 -7 0 -4 -12 -17 -26 -28 -16 -13 -28 -35 -33 -60 -8 -46 -5 -828 4 -862 3
-13 19 -30 35 -38 17 -9 28 -20 25 -25 -6 -10 -275 -14 -275 -4 0 3 16 20 35
38 l35 33 0 217 0 216 -300 0 c-279 0 -300 -1 -300 -17 -3 -113 2 -417 7 -429
3 -8 18 -21 34 -30 54 -27 33 -34 -111 -34 -77 0 -140 3 -140 7 0 3 15 19 33
34 l32 27 3 442 3 442 -36 33 c-19 19 -35 36 -35 39 0 3 63 6 140 6 83 0 140
-4 140 -10z m1200 1 c0 -7 132 -286 322 -684 34 -70 65 -124 68 -120 6 7 161
372 296 696 l49 117 87 0 c49 0 88 -3 88 -6 0 -3 -13 -19 -30 -34 -37 -35 -37
-34 -10 -432 36 -512 33 -488 69 -518 17 -15 31 -30 31 -33 0 -4 -63 -7 -140
-7 -130 0 -171 9 -119 25 33 11 57 60 53 108 -5 54 -31 411 -40 547 -5 75 -10
100 -17 89 -5 -9 -80 -184 -167 -390 -153 -365 -158 -374 -185 -374 -27 0 -34
12 -152 260 -68 143 -149 314 -180 380 -31 66 -61 126 -67 133 -9 9 -19 -69
-40 -332 -16 -189 -26 -355 -22 -369 3 -15 19 -31 41 -41 19 -9 35 -21 35 -26
0 -6 -51 -10 -120 -10 -69 0 -120 4 -120 9 0 6 13 17 28 27 54 32 50 7 107
654 22 253 21 266 -15 300 -16 15 -30 31 -30 34 0 3 41 6 90 6 50 0 90 -4 90
-9z"/>
</g>
</svg>
