<?xml version="1.0" standalone="no"?>
<!DOCTYPE svg PUBLIC "-//W3C//DTD SVG 20010904//EN"
 "http://www.w3.org/TR/2001/REC-SVG-20010904/DTD/svg10.dtd">
<svg version="1.0" xmlns="http://www.w3.org/2000/svg"
 width="512.000000pt" height="512.000000pt" viewBox="0 0 512.000000 512.000000"
 preserveAspectRatio="xMidYMid meet">
<metadata>
Created by potrace 1.11, written by Peter Selinger 2001-2013
</metadata>
<g transform="translate(0.000000,512.000000) scale(0.100000,-0.100000)"
fill="#000000" stroke="none">
<path d="M2258 4795 c-1 -1 -52 -6 -113 -10 -133 -8 -205 -14 -330 -31 -22 -3
-53 -7 -70 -9 -118 -13 -346 -58 -490 -95 -157 -41 -172 -46 -291 -91 -331
-124 -535 -282 -620 -479 -18 -43 -19 -83 -22 -1135 -2 -971 0 -1097 14 -1145
55 -190 260 -363 579 -490 88 -35 108 -36 154 -12 88 47 91 181 6 252 -9 7
-50 28 -91 46 -107 46 -205 108 -264 165 -87 87 -84 73 -85 416 l-1 302 31
-19 c94 -58 266 -131 460 -193 296 -96 319 -99 379 -54 68 52 65 168 -6 234
-13 12 -109 56 -213 98 -337 135 -590 270 -636 340 -11 15 -14 88 -15 313 l-1
292 26 -17 c178 -118 546 -253 836 -307 96 -18 267 -46 310 -51 28 -3 84 -10
125 -15 41 -5 120 -12 175 -16 55 -3 123 -8 150 -10 58 -4 532 -4 620 0 96 5
238 16 265 21 14 2 52 7 85 10 103 10 181 21 335 49 48 8 175 36 235 51 33 9
68 17 78 20 56 13 254 82 327 113 78 33 211 103 265 138 l21 14 -1 -723 c0
-397 4 -738 8 -759 17 -72 100 -127 174 -115 46 8 102 51 119 94 12 28 14 189
12 1036 -3 950 -4 1005 -22 1052 -90 241 -393 434 -894 571 -51 14 -102 27
-115 30 -200 39 -362 67 -462 79 -27 3 -63 8 -80 10 -16 2 -70 7 -120 10 -49
4 -99 10 -110 12 -22 6 -731 13 -737 8z m682 -329 c127 -8 200 -14 260 -21 25
-3 68 -8 95 -11 64 -7 333 -51 394 -65 25 -6 53 -12 61 -14 204 -45 472 -148
587 -226 61 -42 121 -104 138 -145 62 -149 -178 -324 -610 -443 -187 -51 -337
-80 -570 -110 -134 -17 -166 -20 -265 -27 -52 -3 -115 -8 -140 -10 -51 -4
-581 -4 -650 0 -233 16 -387 30 -450 41 -14 2 -45 7 -70 10 -40 5 -96 15 -187
31 -336 61 -640 174 -792 294 -117 93 -135 176 -57 273 93 115 399 252 716
318 25 5 56 12 70 15 93 20 314 54 410 64 63 6 129 13 145 15 17 2 98 7 180
11 83 3 151 7 152 8 6 5 490 -2 583 -8z"/>
<path d="M2905 2670 c-274 -61 -474 -207 -629 -457 l-26 -42 -67 0 c-38 0 -79
-3 -93 -6 -13 -2 -41 -7 -62 -10 -101 -15 -256 -83 -363 -160 -68 -48 -176
-159 -225 -230 -47 -69 -107 -203 -131 -292 -40 -155 -32 -363 20 -515 110
-320 401 -590 683 -635 24 -4 507 -7 1073 -7 968 -1 1035 0 1105 18 244 60
436 213 537 429 50 106 66 177 68 305 3 143 -15 234 -71 347 -50 102 -57 113
-120 184 -144 160 -341 255 -544 260 l-45 1 -21 98 c-80 366 -357 631 -749
718 -68 15 -260 11 -340 -6z m340 -324 c205 -59 364 -215 426 -418 18 -56 23
-96 22 -173 0 -55 -3 -113 -7 -130 -3 -16 -9 -62 -12 -102 l-7 -72 49 16 c27
8 85 27 129 41 64 20 101 25 185 26 101 1 108 -1 183 -36 160 -76 258 -223
266 -398 9 -208 -152 -411 -360 -454 -47 -9 -302 -12 -1068 -11 l-1006 0 -68
32 c-124 59 -229 162 -299 291 -51 96 -69 163 -74 267 -7 169 51 319 171 440
119 121 271 186 435 186 74 -1 96 -3 175 -21 78 -18 77 -20 114 91 81 237 256
396 486 438 64 12 195 5 260 -13z"/>
</g>
</svg>
