<?xml version="1.0" standalone="no"?>
<!DOCTYPE svg PUBLIC "-//W3C//DTD SVG 20010904//EN"
 "http://www.w3.org/TR/2001/REC-SVG-20010904/DTD/svg10.dtd">
<svg version="1.0" xmlns="http://www.w3.org/2000/svg"
 width="512.000000pt" height="512.000000pt" viewBox="0 0 512.000000 512.000000"
 preserveAspectRatio="xMidYMid meet">
<metadata>
Created by potrace 1.11, written by Peter Selinger 2001-2013
</metadata>
<g transform="translate(0.000000,512.000000) scale(0.100000,-0.100000)"
fill="#000000" stroke="none">
<path d="M2379 5116 c-2 -2 -35 -6 -74 -10 -662 -58 -1308 -407 -1736 -939
-82 -101 -219 -299 -219 -316 0 -5 -4 -11 -8 -13 -11 -4 -123 -236 -162 -333
-86 -216 -142 -444 -167 -685 -15 -135 -7 -535 12 -615 2 -11 6 -36 9 -55 16
-132 89 -396 151 -550 52 -128 158 -326 242 -454 48 -72 89 -133 93 -136 3 -3
33 -39 67 -81 210 -259 560 -535 841 -664 34 -16 62 -33 62 -38 0 -6 3 -8 6
-5 5 5 33 -4 119 -42 147 -64 408 -131 600 -155 28 -4 77 -10 110 -15 59 -8
466 -5 515 4 14 2 45 7 70 11 64 9 88 13 150 25 30 6 64 13 75 15 38 6 170 44
255 73 251 86 494 216 717 384 361 271 665 670 831 1088 71 179 137 430 158
600 26 209 26 554 0 705 -3 17 -8 44 -10 60 -3 17 -10 55 -16 85 -6 30 -14 66
-16 80 -12 61 -74 266 -99 325 -6 17 -25 62 -41 100 -34 83 -143 298 -167 329
-5 6 -30 45 -57 86 -168 260 -449 538 -725 719 -317 209 -695 351 -1051 396
-27 4 -60 9 -74 11 -30 6 -455 15 -461 10z m416 -257 c142 -17 162 -20 274
-45 158 -36 351 -104 506 -179 141 -69 300 -164 327 -196 9 -11 19 -19 22 -17
21 11 307 -251 406 -372 19 -23 40 -48 45 -54 60 -65 174 -241 243 -376 201
-386 286 -819 249 -1265 -52 -628 -373 -1215 -882 -1616 -137 -108 -366 -246
-387 -233 -6 4 -8 3 -5 -3 16 -26 -406 -180 -565 -207 -18 -3 -76 -13 -128
-22 -196 -33 -576 -25 -780 17 -82 17 -84 17 -98 18 -7 1 -11 5 -8 9 2 4 -7 7
-21 6 -57 -2 -318 95 -488 181 -281 143 -527 340 -731 585 -81 98 -164 213
-164 228 0 6 -4 12 -8 14 -23 9 -192 336 -192 370 0 8 -4 18 -9 24 -21 22 -98
291 -120 419 -6 33 -13 74 -16 90 -25 146 -26 433 0 645 23 192 112 488 204
675 56 113 154 284 186 323 8 9 35 46 62 82 156 213 425 450 673 594 198 116
507 234 705 270 60 12 151 25 205 31 30 3 56 8 58 9 7 8 370 3 437 -5z"/>
<path d="M3397 4423 c-2 -1 -150 -7 -320 -12 -27 -1 -27 -2 47 -113 l75 -112
-42 -35 c-71 -59 -329 -321 -403 -411 -86 -104 -224 -288 -224 -300 0 -4 12
-11 27 -14 14 -4 45 -23 68 -42 l42 -34 81 107 c85 115 107 142 218 268 99
112 294 296 305 289 5 -3 8 0 7 7 -2 6 2 13 8 16 6 2 44 -46 83 -107 40 -60
76 -112 80 -114 6 -4 65 131 183 419 38 93 57 136 68 157 21 38 14 40 -146 36
-85 -1 -156 -4 -157 -5z"/>
<path d="M875 4063 c-33 -37 -74 -85 -91 -108 l-32 -41 -1 -142 -2 -141 30 10
c17 6 55 9 84 7 l54 -3 0 85 c-1 88 11 310 18 368 3 17 4 32 2 32 -1 0 -29
-30 -62 -67z"/>
<path d="M785 3481 c-88 -40 -122 -136 -79 -226 56 -118 224 -117 284 1 70
135 -69 287 -205 225z"/>
<path d="M1154 3347 l1 -87 70 0 c128 -2 274 -11 398 -26 120 -14 124 -15 262
-39 50 -9 124 -25 172 -38 58 -15 63 -14 63 20 0 12 9 46 20 75 11 29 20 54
20 55 0 7 -284 66 -400 82 -203 29 -213 30 -421 37 l-185 7 0 -86z"/>
<path d="M2349 3278 c-111 -64 -105 -235 9 -288 136 -64 276 72 218 211 -37
89 -144 126 -227 77z"/>
<path d="M3137 3104 c-1 -1 -40 -5 -87 -8 -133 -9 -321 -23 -331 -25 -4 -1
-17 -19 -28 -42 l-22 -41 74 -136 c133 -245 150 -276 178 -330 15 -29 30 -49
32 -45 3 4 31 58 62 118 32 61 61 114 65 118 8 9 144 -82 270 -182 52 -42 97
-78 100 -81 3 -4 32 -31 65 -60 33 -29 65 -61 70 -71 6 -10 14 -19 20 -21 5
-2 36 -31 68 -65 l59 -62 41 43 c23 23 52 48 65 56 23 15 23 16 -75 115 -164
169 -360 331 -528 440 -33 22 -62 41 -64 42 -9 6 43 102 52 96 6 -3 7 -1 3 6
-4 6 9 41 29 77 l37 65 -77 -2 c-42 -2 -77 -4 -78 -5z"/>
<path d="M874 3062 c-12 -8 -19 -26 -116 -282 -109 -285 -118 -313 -113 -318
3 -3 62 7 132 21 69 15 128 26 129 24 2 -2 5 -12 7 -23 6 -32 18 -77 27 -104
5 -14 23 -72 41 -130 99 -324 261 -686 451 -1007 34 -57 66 -103 73 -103 7 0
19 8 29 19 9 10 36 26 59 37 23 10 44 19 46 21 2 1 -17 35 -42 75 -72 117 -92
154 -176 323 -93 187 -105 215 -161 355 -72 179 -169 477 -182 554 -2 16 7 21
52 32 30 7 73 15 95 18 62 9 95 20 94 31 -1 9 -111 131 -262 289 -32 34 -81
87 -109 119 -54 60 -56 61 -74 49z"/>
<path d="M2155 2812 c-157 -318 -303 -698 -380 -982 -10 -36 -21 -69 -25 -73
-7 -7 -106 8 -263 39 -25 5 -27 4 -18 -13 27 -45 171 -419 166 -431 -2 -7 -1
-11 4 -8 4 3 19 -23 32 -57 21 -56 27 -62 55 -65 33 -3 40 3 224 207 47 52
115 126 152 165 l66 71 -46 11 c-26 7 -82 18 -125 25 -76 13 -78 14 -72 39 21
90 126 414 148 455 6 11 12 27 13 35 4 33 124 309 220 503 24 50 43 91 41 91
-21 7 -117 61 -117 66 0 4 -6 10 -14 13 -9 4 -28 -24 -61 -91z"/>
<path d="M4397 2776 c-286 -109 -316 -122 -306 -129 2 -2 33 -25 69 -52 36
-27 67 -52 70 -55 3 -3 20 -16 38 -29 17 -12 32 -26 32 -31 0 -4 -34 -51 -75
-104 l-74 -95 60 -60 60 -60 81 102 c44 56 84 103 89 105 4 2 52 -31 107 -72
54 -42 101 -76 103 -76 3 0 5 12 5 28 0 15 4 65 8 112 4 47 9 112 12 145 2 33
6 85 9 115 3 30 7 89 10 130 3 41 8 90 10 108 2 17 1 32 -3 32 -4 0 -141 -52
-305 -114z"/>
<path d="M3940 2149 c-33 -13 -68 -47 -87 -83 -15 -29 -25 -126 -14 -126 3 0
12 -14 20 -30 33 -75 150 -105 222 -57 49 32 81 100 75 156 -6 50 -38 102 -78
125 -33 20 -105 28 -138 15z"/>
<path d="M3674 1816 c-129 -110 -490 -356 -521 -356 -7 0 -13 -4 -13 -10 0 -5
-5 -10 -12 -10 -6 0 -19 -6 -27 -14 -22 -19 -319 -168 -361 -181 -3 -1 -30
-13 -60 -27 -30 -14 -80 -34 -110 -46 -30 -11 -75 -28 -99 -37 -109 -41 -252
-84 -406 -124 l-40 -10 0 -86 0 -86 44 6 c25 3 48 8 53 11 4 3 16 7 25 9 79
15 427 130 518 170 17 8 59 26 95 41 199 82 508 250 709 385 87 59 253 183
292 217 14 12 34 29 45 37 18 15 18 16 -7 39 -15 13 -40 42 -57 64 l-29 41
-39 -33z"/>
<path d="M4196 1745 c-16 -13 -48 -32 -70 -41 -23 -10 -42 -19 -44 -19 -1 -1
27 -62 62 -136 65 -137 76 -162 131 -329 l31 -95 62 84 c48 64 61 89 56 105
-22 70 -92 237 -142 338 l-57 117 -29 -24z"/>
<path d="M1667 1056 c-48 -18 -71 -38 -92 -83 -59 -124 52 -265 182 -231 49
12 96 53 111 97 47 135 -73 264 -201 217z"/>
<path d="M1030 902 c0 -5 85 -78 144 -125 l61 -48 90 3 c130 3 127 1 104 53
-10 24 -20 60 -21 82 l-1 38 -189 0 c-103 0 -188 -1 -188 -3z"/>
<path d="M1977 720 c-10 -17 -34 -42 -53 -58 -19 -15 -34 -31 -34 -37 1 -11
165 -176 247 -248 47 -41 57 -46 135 -56 78 -12 232 -21 225 -15 -2 2 -35 27
-75 57 -101 75 -264 222 -347 311 -38 42 -72 76 -75 76 -3 0 -14 -14 -23 -30z"/>
</g>
</svg>
