<?xml version="1.0" standalone="no"?>
<!DOCTYPE svg PUBLIC "-//W3C//DTD SVG 20010904//EN"
 "http://www.w3.org/TR/2001/REC-SVG-20010904/DTD/svg10.dtd">
<svg version="1.0" xmlns="http://www.w3.org/2000/svg"
 width="480.000000pt" height="480.000000pt" viewBox="0 0 480.000000 480.000000"
 preserveAspectRatio="xMidYMid meet">
<metadata>
Created by potrace 1.11, written by Peter Selinger 2001-2013
</metadata>
<g transform="translate(0.000000,480.000000) scale(0.100000,-0.100000)"
fill="#000000" stroke="none">
<path d="M2035 4660 c-176 -76 -342 -149 -370 -161 -70 -31 -110 -48 -275
-119 -80 -34 -167 -72 -195 -84 -27 -13 -195 -85 -373 -162 -389 -167 -442
-203 -472 -315 -7 -25 -9 -515 -8 -1451 l3 -1413 23 -43 c71 -133 285 -241
552 -280 63 -9 287 -8 333 1 l37 8 1 1272 c0 700 2 1283 5 1297 16 94 59 181
126 251 81 85 112 103 383 219 99 43 290 126 425 185 135 59 254 109 265 113
11 3 22 8 25 11 3 4 32 17 65 30 56 23 130 55 201 86 17 8 100 44 185 81 85
36 172 74 194 84 22 10 62 27 89 39 46 20 48 22 42 53 -7 36 -30 65 -66 82
-44 22 -61 18 -235 -59 -16 -7 -151 -66 -300 -130 -148 -64 -294 -128 -323
-141 -29 -13 -55 -24 -58 -24 -3 0 -35 -13 -71 -30 -35 -16 -66 -30 -68 -30
-3 0 -30 -12 -62 -26 -76 -35 -83 -38 -353 -154 -127 -55 -250 -109 -273 -119
-107 -48 -172 -73 -234 -87 -91 -21 -248 -21 -358 0 -91 18 -225 64 -261 90
-18 14 -15 17 51 46 89 40 126 56 173 76 20 9 51 22 67 29 17 8 116 50 220 95
175 75 304 131 380 165 122 54 713 308 727 312 9 3 31 -2 50 -10 60 -26 183
-79 193 -83 7 -3 10 53 10 169 -1 147 -4 177 -19 203 -23 38 -45 52 -93 58
-32 5 -85 -15 -358 -134z"/>
<path d="M3250 4054 c-157 -69 -375 -163 -485 -210 -243 -105 -281 -122 -320
-139 -16 -7 -181 -78 -365 -158 -406 -175 -430 -187 -485 -242 -78 -77 -73 24
-71 -1555 1 -1317 2 -1407 19 -1440 29 -59 74 -106 145 -153 150 -99 338 -149
562 -151 225 -2 241 3 713 208 193 84 449 195 567 246 118 51 238 102 265 115
28 12 163 71 300 130 336 144 332 142 355 167 20 22 20 29 20 1464 l0 1441
-26 27 c-15 14 -32 26 -38 27 -6 0 -20 2 -30 4 -18 3 -112 -32 -231 -85 -22
-10 -186 -81 -365 -158 -179 -77 -449 -194 -600 -259 -281 -122 -311 -135
-320 -138 -3 -1 -27 -12 -55 -24 -121 -54 -263 -115 -300 -128 -103 -38 -265
-47 -408 -23 -85 15 -225 60 -269 88 -37 24 -49 16 147 100 77 33 246 106 375
162 129 56 282 122 340 147 58 24 123 53 145 63 61 28 123 55 195 85 62 26 94
40 194 85 25 11 47 20 50 20 3 0 35 13 70 30 100 46 100 46 215 -5 57 -25 110
-45 118 -45 20 0 18 307 -3 355 -16 39 -70 75 -110 74 -16 -1 -157 -57 -314
-125z"/>
</g>
</svg>
