<?xml version="1.0" standalone="no"?>
<!DOCTYPE svg PUBLIC "-//W3C//DTD SVG 20010904//EN"
 "http://www.w3.org/TR/2001/REC-SVG-20010904/DTD/svg10.dtd">
<svg version="1.0" xmlns="http://www.w3.org/2000/svg"
 width="557.000000pt" height="557.000000pt" viewBox="0 0 557.000000 557.000000"
 preserveAspectRatio="xMidYMid meet">
<metadata>
Created by potrace 1.11, written by Peter Selinger 2001-2013
</metadata>
<g transform="translate(0.000000,557.000000) scale(0.100000,-0.100000)"
fill="#000000" stroke="none">
<path d="M2509 5090 c-146 -55 -224 -137 -252 -265 -15 -71 -11 -161 11 -230
29 -92 117 -216 217 -303 51 -45 168 -131 200 -147 6 -3 4 -8 -3 -11 -8 -3
-46 -28 -85 -55 -92 -62 -194 -163 -267 -265 -192 -265 -198 -556 -16 -792 25
-34 61 -77 80 -96 l33 -36 -66 -39 c-64 -38 -206 -150 -308 -242 -109 -98
-249 -326 -301 -489 -35 -110 -57 -299 -47 -394 11 -92 33 -183 66 -261 37
-89 109 -163 189 -193 139 -52 422 -34 810 54 347 79 386 69 382 -94 -2 -78
-39 -151 -119 -234 -155 -161 -307 -218 -581 -218 -121 0 -154 -4 -187 -19
-93 -42 -150 -134 -126 -202 14 -42 50 -89 64 -86 7 1 12 -9 12 -25 -1 -16 4
-28 9 -28 5 0 17 -7 26 -15 23 -21 109 -29 177 -15 61 12 223 59 310 90 28 10
54 16 56 13 3 -3 19 4 35 16 17 12 34 21 38 21 16 0 64 54 64 72 0 11 5 15 15
12 11 -5 13 -2 9 9 -3 9 -12 13 -22 10 -11 -5 -14 -2 -9 10 8 20 7 20 -30 6
-35 -13 -28 -6 68 63 136 100 245 222 328 370 43 77 68 154 86 264 38 240 -36
377 -219 406 -89 14 -243 2 -453 -34 -96 -16 -171 -22 -298 -22 -165 -1 -172
0 -225 26 -30 15 -64 35 -75 45 -35 31 -57 92 -65 182 -18 194 39 337 227 562
140 170 282 279 363 279 15 0 63 -9 106 -19 139 -35 226 -51 339 -62 306 -31
470 45 476 222 4 105 -58 156 -226 185 -170 29 -339 8 -502 -62 -45 -19 -97
-35 -116 -36 -69 -2 -122 50 -186 186 -41 85 -54 157 -49 280 3 86 8 113 36
180 41 100 101 184 188 265 85 80 149 121 189 121 18 0 56 -15 91 -36 64 -39
231 -91 379 -119 138 -26 272 -2 369 64 55 38 72 61 85 121 15 67 -3 114 -69
181 -79 80 -152 104 -315 104 -130 -1 -198 -12 -408 -71 l-128 -36 -47 28
c-26 15 -81 61 -122 103 -80 81 -112 142 -126 242 -8 60 20 126 69 163 75 57
249 76 373 41 78 -22 100 -13 109 47 3 24 8 55 11 70 5 23 0 30 -33 46 -58 30
-219 82 -301 98 -102 19 -255 17 -313 -6z"/>
</g>
</svg>
