<?xml version="1.0" standalone="no"?>
<!DOCTYPE svg PUBLIC "-//W3C//DTD SVG 20010904//EN"
 "http://www.w3.org/TR/2001/REC-SVG-20010904/DTD/svg10.dtd">
<svg version="1.0" xmlns="http://www.w3.org/2000/svg"
 width="467.000000pt" height="467.000000pt" viewBox="0 0 467.000000 467.000000"
 preserveAspectRatio="xMidYMid meet">
<metadata>
Created by potrace 1.11, written by Peter Selinger 2001-2013
</metadata>
<g transform="translate(0.000000,467.000000) scale(0.100000,-0.100000)"
fill="#000000" stroke="none">
<path d="M512 4659 c-230 -39 -417 -206 -490 -439 -15 -51 -17 -198 -20 -1850
-3 -1999 -7 -1879 65 -2030 47 -99 168 -222 263 -269 146 -71 -21 -65 1970
-69 1999 -3 1879 -7 2030 65 105 50 223 168 273 273 72 151 68 31 65 2030 -4
1991 2 1824 -69 1970 -47 95 -170 216 -269 263 -150 71 -32 67 -1997 66 -972
-1 -1792 -5 -1821 -10z m1061 -1001 c120 -67 121 -224 7 -758 -65 -304 -72
-356 -77 -541 -12 -444 69 -672 272 -766 77 -35 222 -44 329 -19 301 71 495
386 580 941 28 184 37 298 46 605 10 335 24 429 76 497 44 57 69 68 156 67 96
-2 181 -39 211 -91 31 -54 41 -215 28 -435 -24 -398 -90 -714 -217 -1041 l-46
-117 18 -53 c39 -120 98 -203 169 -237 68 -33 176 -26 268 17 71 34 156 107
203 174 25 36 29 38 38 22 15 -27 11 -209 -8 -286 -20 -86 -80 -207 -130 -264
-59 -67 -124 -96 -216 -96 -61 -1 -87 5 -138 28 -116 52 -225 199 -271 365
-12 41 -21 85 -21 97 0 44 -17 30 -80 -65 -74 -112 -189 -236 -276 -298 -288
-206 -642 -165 -915 106 -88 87 -146 169 -199 283 l-38 80 -7 -68 c-4 -37 -5
-147 -2 -244 4 -138 11 -199 30 -281 40 -170 118 -353 233 -547 114 -192 162
-320 149 -392 -18 -95 -74 -142 -192 -162 -173 -28 -309 40 -381 192 -47 98
-63 205 -69 450 -6 243 3 401 49 849 28 269 32 340 32 600 0 207 -5 343 -16
455 -57 541 -42 791 54 882 43 40 71 54 138 70 73 17 163 9 213 -19z"/>
</g>
</svg>
