<?xml version="1.0" standalone="no"?>
<!DOCTYPE svg PUBLIC "-//W3C//DTD SVG 20010904//EN"
 "http://www.w3.org/TR/2001/REC-SVG-20010904/DTD/svg10.dtd">
<svg version="1.0" xmlns="http://www.w3.org/2000/svg"
 width="512.000000pt" height="512.000000pt" viewBox="0 0 512.000000 512.000000"
 preserveAspectRatio="xMidYMid meet">
<metadata>
Created by potrace 1.11, written by Peter Selinger 2001-2013
</metadata>
<g transform="translate(0.000000,512.000000) scale(0.100000,-0.100000)"
fill="#000000" stroke="none">
<path d="M2355 5044 c-600 -63 -1095 -286 -1503 -679 -404 -388 -651 -868
-739 -1435 -25 -160 -24 -528 1 -690 101 -664 439 -1230 970 -1629 639 -480
1490 -614 2261 -356 639 214 1180 708 1457 1330 338 757 268 1656 -182 2340
-396 602 -1002 992 -1710 1100 -101 15 -469 28 -555 19z m-315 -1750 c0 -662
2 -764 16 -827 29 -124 71 -201 155 -285 124 -122 348 -155 517 -75 152 71
269 263 298 489 3 28 7 366 8 750 l1 699 273 3 272 2 0 -840 c0 -926 0 -929
61 -1025 22 -35 42 -52 86 -72 49 -23 64 -25 129 -20 l74 5 0 -208 c0 -190 -2
-209 -17 -214 -47 -13 -148 -27 -243 -33 -191 -10 -340 35 -435 132 -51 52
-112 156 -135 230 -19 61 -27 63 -49 13 -35 -83 -101 -175 -171 -242 -119
-112 -241 -159 -415 -160 -170 -1 -273 37 -367 137 l-58 60 0 -586 0 -587
-270 0 -270 0 0 1705 0 1705 270 0 270 0 0 -756z"/>
</g>
</svg>
