<?xml version="1.0" standalone="no"?>
<!DOCTYPE svg PUBLIC "-//W3C//DTD SVG 20010904//EN"
 "http://www.w3.org/TR/2001/REC-SVG-20010904/DTD/svg10.dtd">
<svg version="1.0" xmlns="http://www.w3.org/2000/svg"
 width="512.000000pt" height="512.000000pt" viewBox="0 0 512.000000 512.000000"
 preserveAspectRatio="xMidYMid meet">
<metadata>
Created by potrace 1.11, written by Peter Selinger 2001-2013
</metadata>
<g transform="translate(0.000000,512.000000) scale(0.100000,-0.100000)"
fill="#000000" stroke="none">
<path d="M1640 4718 c-296 -15 -572 -90 -828 -223 -428 -224 -702 -560 -788
-967 -25 -117 -25 -344 0 -458 92 -426 394 -779 855 -1000 l73 -35 -4 -110
c-7 -169 -69 -324 -179 -451 -54 -63 -62 -86 -45 -129 19 -44 52 -53 166 -43
308 27 609 244 730 526 l22 52 74 0 73 0 60 -91 60 -91 -16 -33 c-23 -48 -7
-79 91 -172 148 -142 306 -249 496 -334 268 -119 548 -179 844 -179 l153 0 27
-61 c119 -275 421 -490 726 -517 114 -10 147 -1 166 43 18 43 10 65 -47 132
-112 131 -170 278 -177 448 l-4 110 102 50 c844 412 1102 1306 571 1980 -228
289 -589 506 -1006 604 -105 25 -140 21 -164 -20 l-16 -30 -90 7 c-49 4 -95
11 -101 16 -7 5 -22 32 -34 60 -57 133 -181 300 -311 422 -378 351 -897 525
-1479 494z m370 -179 c655 -73 1190 -469 1331 -984 27 -99 37 -324 19 -418
-26 -137 -86 -289 -158 -401 -207 -320 -598 -566 -1037 -650 -150 -29 -236
-36 -426 -36 -220 0 -210 4 -254 -109 -74 -194 -238 -358 -428 -427 l-64 -23
38 77 c62 126 80 207 86 372 8 208 13 199 -179 293 -186 91 -302 172 -428 297
-155 155 -253 320 -307 519 -22 81 -26 118 -27 236 -1 221 48 393 162 570 316
492 975 762 1672 684z"/>
</g>
</svg>
