<?xml version="1.0" standalone="no"?>
<!DOCTYPE svg PUBLIC "-//W3C//DTD SVG 20010904//EN"
 "http://www.w3.org/TR/2001/REC-SVG-20010904/DTD/svg10.dtd">
<svg version="1.0" xmlns="http://www.w3.org/2000/svg"
 width="322.000000pt" height="322.000000pt" viewBox="0 0 322.000000 322.000000"
 preserveAspectRatio="xMidYMid meet">
<metadata>
Created by potrace 1.11, written by Peter Selinger 2001-2013
</metadata>
<g transform="translate(0.000000,322.000000) scale(0.100000,-0.100000)"
fill="#000000" stroke="none">
<path d="M2399 3109 c-11 -7 -9 -9 9 -9 17 0 22 -6 22 -24 0 -14 -4 -28 -10
-31 -5 -3 -10 -12 -10 -18 1 -25 30 28 30 54 0 29 -19 42 -41 28z"/>
<path d="M1210 3107 c0 -5 9 -22 21 -38 12 -17 25 -42 30 -57 7 -21 7 -18 3
15 -5 35 -2 44 15 55 12 7 21 17 21 22 0 5 -12 -1 -26 -15 l-25 -24 -19 25
c-11 14 -20 21 -20 17z"/>
<path d="M796 3069 c-9 -47 -7 -91 4 -84 5 3 7 12 4 19 -8 21 39 29 54 9 6 -9
12 -12 12 -6 0 8 -44 71 -65 91 -1 1 -5 -12 -9 -29z m29 -19 c3 -5 -1 -10 -10
-10 -9 0 -13 5 -10 10 3 6 8 10 10 10 2 0 7 -4 10 -10z"/>
<path d="M1671 3048 c0 -32 3 -58 8 -58 4 0 6 11 3 25 -4 22 -1 25 27 25 24 0
31 -4 31 -19 0 -11 5 -23 10 -26 8 -5 9 10 4 47 -7 59 -14 75 -14 35 0 -23 -4
-27 -29 -27 -25 0 -30 5 -34 28 -2 15 -5 1 -6 -30z"/>
<path d="M917 3035 c7 -48 13 -58 13 -23 0 16 8 29 23 36 17 8 18 11 5 11 -9
1 -20 -4 -24 -11 -5 -8 -10 -6 -15 8 -5 11 -6 3 -2 -21z"/>
<path d="M1026 3049 c-21 -30 -5 -59 32 -58 27 1 27 1 3 8 -35 9 -39 31 -6 31
20 0 26 4 23 17 -5 26 -34 27 -52 2z m39 1 c3 -6 -4 -10 -17 -10 -18 0 -20 2
-8 10 19 12 18 12 25 0z"/>
<path d="M1350 3045 c-18 -21 -3 -55 25 -55 15 0 26 7 30 20 7 23 -10 50 -30
50 -7 0 -18 -7 -25 -15z m43 -11 c9 -10 -4 -34 -18 -34 -17 0 -28 17 -20 30 7
11 28 13 38 4z"/>
<path d="M1460 3055 c-9 -39 15 -82 36 -64 7 6 18 8 24 4 6 -4 10 7 10 29 0
42 -17 49 -22 9 -4 -38 -31 -36 -39 2 -4 17 -8 26 -9 20z"/>
<path d="M1822 3048 c-20 -20 -15 -58 8 -58 11 0 20 7 20 15 0 20 16 19 24 -1
4 -9 9 -14 12 -11 9 8 -25 67 -39 67 -7 0 -18 -5 -25 -12z m28 -15 c0 -5 -4
-15 -10 -23 -11 -18 -25 -7 -17 15 6 15 27 21 27 8z"/>
<path d="M1953 3053 c-9 -3 -13 -23 -12 -56 1 -29 4 -42 6 -29 2 12 11 22 18
22 19 0 45 39 38 56 -5 14 -27 17 -50 7z m35 -25 c-4 -29 -38 -38 -38 -10 0
22 8 32 27 32 9 0 13 -8 11 -22z"/>
<path d="M2065 3048 c-10 -29 -12 -64 -4 -83 8 -20 8 -20 8 0 1 11 11 25 24
30 31 14 31 59 -1 63 -12 2 -24 -3 -27 -10z m45 -11 c0 -14 -20 -37 -32 -37
-10 0 -11 34 -1 43 11 12 33 8 33 -6z"/>
<path d="M2170 3052 c0 -7 8 -24 17 -38 13 -21 14 -30 5 -45 -7 -11 -8 -19 -2
-19 5 0 20 21 32 48 12 26 23 50 25 55 2 4 0 7 -5 7 -6 0 -13 -11 -16 -25 -8
-33 -22 -32 -40 3 -8 15 -15 21 -16 14z"/>
<path d="M2400 2990 c0 -5 7 -10 15 -10 8 0 15 5 15 10 0 6 -7 10 -15 10 -8 0
-15 -4 -15 -10z"/>
<path d="M2457 2801 c-39 -20 -88 -54 -109 -76 -44 -45 -78 -127 -78 -187 0
-23 -3 -38 -7 -35 -3 4 -17 0 -30 -8 -13 -9 -23 -11 -23 -5 0 14 -47 36 -158
74 -110 38 -156 47 -259 52 -40 2 -81 8 -92 14 -11 5 -62 9 -113 9 -66 -1 -84
-4 -63 -9 25 -7 20 -8 -25 -8 -74 1 -320 -47 -320 -63 0 -6 -31 -17 -70 -25
-36 -7 -100 -37 -112 -52 -11 -15 -11 -15 2 -6 8 6 24 14 34 18 15 5 17 4 7
-8 -9 -11 -9 -15 1 -20 7 -3 2 -3 -12 1 -22 5 -23 4 -12 -10 11 -13 10 -15 -7
-10 -15 4 -21 1 -21 -11 0 -13 -7 -16 -27 -12 -16 2 -29 5 -30 5 -1 1 2 12 7
26 5 14 6 25 1 25 -4 0 -7 17 -5 38 4 50 -4 72 -27 72 -10 0 -19 5 -19 11 0 5
-11 27 -25 47 -14 20 -25 33 -25 28 0 -5 -8 -2 -18 7 -10 10 -22 14 -25 10 -4
-3 -7 -1 -7 5 0 6 -16 16 -34 23 -19 7 -33 16 -31 19 7 12 -141 33 -184 27
-91 -12 -226 -100 -262 -170 -9 -18 -25 -48 -35 -67 -59 -111 0 -352 97 -395
22 -10 44 -24 50 -31 5 -7 33 -17 62 -24 29 -6 59 -14 67 -17 8 -4 18 -6 22
-5 3 1 -4 -31 -17 -71 -31 -94 -53 -196 -61 -279 -4 -38 -11 -68 -16 -68 -15
0 -2 -273 17 -365 9 -44 27 -111 41 -148 13 -38 24 -76 24 -85 0 -9 10 -28 21
-42 11 -14 31 -42 45 -62 13 -21 32 -38 42 -38 14 0 15 -2 2 -10 -12 -8 -12
-10 3 -16 9 -3 14 -11 10 -17 -4 -7 0 -8 11 -4 23 9 43 -2 25 -14 -9 -5 1 -19
36 -51 27 -24 59 -53 72 -65 13 -13 31 -23 40 -23 9 0 14 -3 10 -6 -7 -7 58
-54 73 -54 6 0 10 -4 10 -9 0 -6 25 -18 55 -27 30 -10 64 -26 75 -36 10 -10
26 -18 34 -18 8 0 18 -4 21 -10 3 -6 14 -10 23 -10 9 0 24 -4 32 -9 12 -8 10
-14 -12 -35 -14 -14 -33 -47 -43 -74 -10 -26 -44 -94 -77 -151 -32 -57 -58
-105 -58 -107 0 -2 -14 -33 -30 -67 -17 -35 -30 -69 -30 -75 0 -9 183 -12 719
-12 l720 0 -9 30 c-26 89 -147 348 -212 449 -15 25 -28 53 -28 62 0 9 -10 20
-22 23 -20 5 -15 10 31 26 30 11 78 34 106 51 49 30 68 43 135 97 15 12 32 22
37 22 5 0 35 27 67 61 32 33 60 58 62 56 3 -2 0 -16 -6 -31 -9 -24 -8 -27 9
-21 10 3 24 -1 31 -10 7 -8 21 -15 31 -15 18 0 18 1 -1 20 -12 12 -18 26 -13
33 5 8 9 7 11 -6 2 -9 7 -15 12 -12 5 3 21 -6 36 -20 15 -14 32 -25 38 -25 6
0 -4 -14 -22 -30 -18 -17 -29 -30 -23 -30 5 0 12 4 15 9 9 13 46 1 46 -15 0
-8 8 -14 18 -14 15 0 15 2 2 11 -11 8 -12 12 -2 16 6 2 12 9 12 14 0 6 -4 7
-10 4 -5 -3 -18 -1 -27 4 -17 10 -15 12 16 15 8 0 16 7 19 15 3 9 -1 11 -14 7
-28 -8 -59 24 -60 62 -1 26 1 30 12 21 10 -8 14 -8 14 -1 0 18 -20 24 -35 12
-11 -9 -12 -17 -4 -31 6 -12 6 -19 0 -19 -5 0 -11 4 -13 9 -1 5 -15 13 -30 16
-23 6 -28 4 -29 -11 0 -11 -3 -14 -5 -7 -3 7 0 22 7 34 10 19 9 21 -5 16 -22
-9 -20 9 2 25 10 7 21 21 25 31 3 9 13 17 22 17 8 0 15 9 15 20 0 11 4 20 8
20 5 0 17 19 28 41 10 23 20 36 22 30 2 -6 -2 -19 -10 -28 -11 -15 -11 -16 6
-10 13 5 17 3 13 -7 -8 -20 10 -24 63 -16 25 4 37 8 28 9 -29 2 -21 21 9 21
14 0 24 3 20 6 -3 4 4 15 16 25 19 16 20 18 5 19 -10 0 -18 -4 -18 -10 0 -5
-7 -10 -16 -10 -8 0 -12 -4 -9 -10 4 -6 -6 -7 -27 -3 -30 6 -32 5 -19 -10 9
-11 10 -17 2 -17 -6 0 -11 5 -11 11 0 5 -4 8 -9 4 -5 -3 -13 0 -17 6 -4 8 -3
9 5 5 7 -5 15 4 22 23 6 17 14 30 17 30 24 -4 22 4 -6 24 -24 18 -29 26 -20
35 18 18 30 14 23 -7 -5 -16 -2 -18 14 -14 19 5 19 7 5 28 -10 16 -21 22 -32
18 -14 -5 -15 -4 -6 8 6 8 12 21 12 29 0 8 6 58 14 110 19 145 15 292 -12 370
-13 39 -19 76 -16 93 7 33 -7 91 -35 154 -10 22 -20 56 -21 74 -3 31 -2 32 67
54 151 47 224 109 254 218 10 37 14 67 10 67 -5 0 -9 11 -9 24 0 32 -10 57
-20 51 -5 -3 -16 5 -24 17 -11 16 -13 25 -4 35 12 15 32 18 23 3 -3 -5 -1 -10
4 -10 6 0 11 6 11 14 0 8 3 22 7 32 5 13 3 16 -10 11 -8 -3 -21 1 -27 9 -7 8
-9 14 -4 14 4 0 3 5 -4 12 -7 7 -12 24 -12 39 0 18 -14 41 -45 71 -25 25 -45
49 -45 54 0 12 -81 50 -145 68 -86 25 -157 19 -238 -23z m211 12 c-10 -2 -26
-2 -35 0 -10 3 -2 5 17 5 19 0 27 -2 18 -5z m-2173 -243 c-3 -5 -12 -10 -18
-10 -7 0 -6 4 3 10 19 12 23 12 15 0z m2415 -4 c0 -3 -4 -8 -10 -11 -5 -3 -10
-1 -10 4 0 6 5 11 10 11 6 0 10 -2 10 -4z m10 -61 c0 -8 -4 -15 -10 -15 -5 0
-10 7 -10 15 0 8 5 15 10 15 6 0 10 -7 10 -15z m-2040 -129 c0 -3 -4 -8 -10
-11 -5 -3 -10 -1 -10 4 0 6 5 11 10 11 6 0 10 -2 10 -4z m280 -257 c0 -10 -4
-19 -10 -19 -5 0 -10 12 -10 26 0 14 4 23 10 19 6 -3 10 -15 10 -26z m1085
-309 c20 -38 19 -56 -2 -64 -28 -11 -43 18 -30 59 6 19 12 35 13 35 2 0 10
-13 19 -30z m-416 -21 c133 -24 245 -65 329 -119 34 -22 69 -40 79 -41 11 0
13 -3 6 -6 -18 -7 -16 -23 2 -23 8 0 15 -4 15 -9 0 -5 19 -28 43 -51 25 -25
43 -52 44 -67 1 -15 6 -29 11 -32 17 -12 43 -95 49 -155 7 -84 -10 -165 -56
-260 -31 -64 -55 -97 -114 -153 -41 -39 -90 -79 -107 -88 -18 -10 -42 -25 -53
-36 -11 -10 -23 -16 -27 -14 -4 3 -27 -6 -51 -19 -112 -63 -269 -91 -499 -91
-157 0 -183 2 -250 24 -86 27 -208 89 -262 132 -20 16 -40 29 -45 29 -11 0
-63 62 -64 78 -1 6 -2 16 -3 21 0 5 -13 28 -28 51 -17 24 -28 56 -28 75 0 19
-5 37 -11 41 -6 3 -8 18 -5 33 4 14 11 64 16 111 7 76 22 124 51 170 55 86
131 173 201 226 31 25 63 50 70 57 7 7 32 21 55 31 23 10 40 22 38 26 -3 4 4
10 15 13 11 3 18 1 14 -4 -3 -5 2 -6 10 -3 9 3 16 10 16 15 0 5 10 9 23 9 13
0 27 3 31 8 4 4 26 8 49 9 23 1 80 8 127 16 120 21 180 20 309 -4z m675 -180
c-8 -14 -24 -10 -24 6 0 9 6 12 15 9 8 -4 12 -10 9 -15z m-114 -4 c0 -8 -4
-15 -9 -15 -13 0 -22 16 -14 24 11 11 23 6 23 -9z m42 0 c0 -5 -5 -11 -11 -13
-6 -2 -11 4 -11 13 0 9 5 15 11 13 6 -2 11 -8 11 -13z m-1672 -44 c0 -11 -5
-23 -11 -27 -15 -9 -33 12 -26 30 9 23 37 20 37 -3z m53 -1 c-3 -11 -12 -20
-19 -20 -20 0 -17 28 4 33 9 3 18 5 19 6 0 0 -1 -8 -4 -19z m47 -14 c-15 -15
-33 4 -19 20 10 12 14 12 20 2 5 -7 4 -17 -1 -22z m1870 -412 c0 -3 -6 -12
-14 -20 -11 -10 -17 -11 -22 -3 -3 6 0 15 7 20 16 10 29 12 29 3z"/>
<path d="M1545 1660 c-75 -6 -108 -19 -125 -50 -15 -28 -3 -84 22 -99 60 -37
232 -19 281 30 33 33 33 37 4 80 -17 26 -30 34 -57 36 -19 2 -39 4 -45 6 -5 1
-41 0 -80 -3z"/>
<path d="M1952 1184 c-30 -102 -91 -165 -206 -213 -69 -29 -91 -33 -170 -33
-147 -1 -225 44 -281 163 -19 40 -34 59 -45 57 -43 -9 -2 -125 67 -189 59 -54
119 -80 208 -86 185 -14 369 71 448 207 32 56 44 115 27 135 -6 8 -9 19 -5 25
3 5 0 10 -7 10 -9 0 -23 -30 -36 -76z"/>
<path d="M2780 1401 c0 -5 5 -13 10 -16 6 -3 10 -2 10 4 0 5 -4 13 -10 16 -5
3 -10 2 -10 -4z"/>
<path d="M2777 1130 c3 -11 10 -20 15 -20 5 0 6 5 2 11 -3 6 0 15 7 20 11 7 9
9 -8 9 -16 0 -20 -5 -16 -20z"/>
<path d="M3010 1130 c0 -5 5 -10 10 -10 6 0 10 5 10 10 0 6 -4 10 -10 10 -5 0
-10 -4 -10 -10z"/>
<path d="M2820 1050 c-6 -11 -7 -20 -3 -20 5 0 14 9 21 20 7 11 8 20 2 20 -5
0 -14 -9 -20 -20z"/>
<path d="M2875 1050 c-4 -13 -12 -19 -21 -16 -9 3 -12 1 -9 -4 11 -18 32 -11
38 12 8 29 1 36 -8 8z"/>
<path d="M2965 1060 c-3 -5 -1 -10 4 -10 6 0 11 5 11 10 0 6 -2 10 -4 10 -3 0
-8 -4 -11 -10z"/>
<path d="M2903 1045 c-3 -9 -3 -18 -1 -21 3 -3 8 4 11 16 6 23 -1 27 -10 5z"/>
<path d="M3030 1019 c0 -5 5 -7 10 -4 6 3 10 8 10 11 0 2 -4 4 -10 4 -5 0 -10
-5 -10 -11z"/>
<path d="M2925 1010 c3 -5 11 -10 16 -10 6 0 7 5 4 10 -3 6 -11 10 -16 10 -6
0 -7 -4 -4 -10z"/>
<path d="M2896 1001 c-3 -5 1 -11 9 -14 9 -4 12 -1 8 9 -6 16 -10 17 -17 5z"/>
<path d="M2970 1000 c0 -5 5 -10 11 -10 5 0 7 5 4 10 -3 6 -8 10 -11 10 -2 0
-4 -4 -4 -10z"/>
<path d="M3020 977 c0 -14 6 -24 15 -24 8 0 15 4 15 9 0 4 -5 8 -11 8 -5 0 -8
4 -4 9 3 5 1 12 -5 16 -6 3 -10 -4 -10 -18z"/>
<path d="M3068 972 c-3 -21 1 -33 14 -41 22 -14 61 -15 53 -1 -4 6 -10 8 -15
5 -15 -9 -41 6 -31 19 6 7 5 17 -4 29 -12 16 -13 15 -17 -11z"/>
<path d="M2756 972 c5 -20 3 -23 -13 -18 -19 6 -63 -17 -53 -28 3 -3 24 0 47
7 40 12 41 13 27 37 -15 25 -15 25 -8 2z"/>
<path d="M2680 970 c0 -5 7 -7 15 -4 8 4 15 8 15 10 0 2 -7 4 -15 4 -8 0 -15
-4 -15 -10z"/>
<path d="M2957 958 c3 -14 1 -19 -4 -12 -12 16 -63 27 -63 13 0 -6 -7 -8 -16
-5 -9 3 -12 2 -9 -5 4 -6 14 -8 22 -4 41 15 71 -23 36 -44 -10 -6 -13 -11 -6
-11 6 0 19 -3 29 -7 13 -5 16 -3 11 10 -4 12 3 26 23 44 17 14 30 31 30 37 0
6 -4 5 -9 -3 -6 -9 -11 -10 -15 -2 -13 21 -34 12 -29 -11z"/>
<path d="M2659 933 c-13 -16 -12 -17 4 -4 16 13 21 21 13 21 -2 0 -10 -8 -17
-17z"/>
<path d="M2990 930 c0 -5 4 -10 9 -10 6 0 13 5 16 10 3 6 -1 10 -9 10 -9 0
-16 -4 -16 -10z"/>
<path d="M3030 920 c0 -5 5 -10 11 -10 6 0 7 -5 2 -12 -11 -19 -14 -48 -4 -48
5 0 11 7 15 15 3 8 0 15 -6 15 -6 0 -4 8 5 18 10 10 14 22 10 25 -10 11 -33 8
-33 -3z"/>
<path d="M2616 903 c-6 -14 -5 -15 5 -6 7 7 10 15 7 18 -3 3 -9 -2 -12 -12z"/>
<path d="M2868 913 c6 -2 18 -2 25 0 6 3 1 5 -13 5 -14 0 -19 -2 -12 -5z"/>
<path d="M2971 904 c0 -11 3 -14 6 -6 3 7 2 16 -1 19 -3 4 -6 -2 -5 -13z"/>
<path d="M3000 899 c0 -5 5 -7 10 -4 6 3 10 8 10 11 0 2 -4 4 -10 4 -5 0 -10
-5 -10 -11z"/>
<path d="M2865 890 c3 -5 11 -10 16 -10 6 0 7 5 4 10 -3 6 -11 10 -16 10 -6 0
-7 -4 -4 -10z"/>
<path d="M3117 883 c-9 -2 -15 -8 -12 -13 6 -10 45 -1 45 11 0 9 -4 10 -33 2z"/>
<path d="M2904 868 c-4 -7 -3 -8 4 -4 7 4 12 2 12 -4 0 -6 6 -10 14 -8 8 2 15
-1 14 -7 0 -5 -4 -9 -9 -7 -5 1 -9 -5 -9 -13 0 -14 3 -13 25 2 13 10 24 25 24
33 0 11 -2 11 -6 2 -3 -8 -9 -9 -16 -4 -22 17 -46 21 -53 10z"/>
<path d="M2725 860 c-4 -6 6 -10 22 -10 22 0 25 2 13 10 -19 12 -27 12 -35 0z"/>
<path d="M2680 850 c12 -8 12 -10 1 -10 -8 0 -12 -2 -9 -5 3 -3 13 -2 22 1 14
5 15 9 4 15 -7 5 -17 9 -23 9 -5 0 -3 -5 5 -10z"/>
<path d="M2996 833 c-9 -21 -8 -23 9 -17 8 4 15 2 15 -4 0 -6 -6 -13 -12 -15
-8 -4 -9 -6 -2 -6 6 -1 16 5 22 12 9 10 6 17 -8 29 -16 15 -19 15 -24 1z"/>
<path d="M2896 831 c-3 -5 1 -11 9 -15 9 -3 15 0 15 9 0 16 -16 20 -24 6z"/>
<path d="M2795 820 c-4 -6 -11 -8 -16 -5 -5 4 -9 1 -9 -4 0 -16 16 -13 30 4 7
8 10 15 7 15 -3 0 -9 -5 -12 -10z"/>
<path d="M2535 810 c-3 -5 -1 -10 4 -10 6 0 11 5 11 10 0 6 -2 10 -4 10 -3 0
-8 -4 -11 -10z"/>
<path d="M2955 799 c-11 -17 1 -21 15 -4 8 9 8 15 2 15 -6 0 -14 -5 -17 -11z"/>
<path d="M2590 776 c0 -8 5 -18 10 -21 6 -3 10 3 10 14 0 12 -4 21 -10 21 -5
0 -10 -6 -10 -14z"/>
<path d="M2976 764 c-3 -9 -4 -20 0 -25 3 -5 0 -9 -5 -9 -6 0 -11 5 -11 10 0
6 -10 10 -22 9 -22 0 -22 -1 -3 -9 19 -8 19 -9 1 -9 -15 -1 -17 -4 -9 -12 9
-9 21 -8 50 4 21 9 30 16 21 16 -20 1 -24 17 -6 23 8 3 9 6 1 11 -6 4 -14 0
-17 -9z"/>
<path d="M2895 750 c3 -5 8 -10 11 -10 2 0 4 5 4 10 0 6 -5 10 -11 10 -5 0 -7
-4 -4 -10z"/>
<path d="M2785 740 c-3 -5 -1 -10 4 -10 6 0 11 5 11 10 0 6 -2 10 -4 10 -3 0
-8 -4 -11 -10z"/>
<path d="M2569 738 c-9 -21 -2 -61 12 -69 20 -10 14 -49 -7 -49 -14 0 -27 35
-24 61 4 25 0 39 -10 39 -5 0 -10 -9 -10 -21 0 -11 -4 -18 -9 -15 -4 3 -19 -3
-31 -14 l-23 -20 22 -8 c13 -4 22 -12 21 -17 -3 -18 18 -16 23 2 4 14 5 14 6
2 2 -23 48 -41 87 -33 19 3 34 10 34 15 0 5 -7 6 -15 3 -20 -8 -20 20 0 39 8
8 28 14 44 13 16 -1 28 2 25 6 -3 4 -12 8 -21 8 -9 0 -21 6 -27 13 -6 7 -10
10 -8 8 4 -7 -30 -41 -42 -41 -16 0 -37 37 -30 54 4 11 -13 35 -17 24z m51
-128 c0 -5 -4 -10 -10 -10 -5 0 -10 5 -10 10 0 6 5 10 10 10 6 0 10 -4 10 -10z"/>
<path d="M2910 700 c0 -5 5 -10 10 -10 6 0 10 5 10 10 0 6 -4 10 -10 10 -5 0
-10 -4 -10 -10z"/>
<path d="M2951 701 c-8 -5 -9 -11 -3 -15 5 -3 12 1 16 9 6 17 6 18 -13 6z"/>
<path d="M2320 682 c0 -7 -7 -12 -15 -12 -8 0 -15 -4 -15 -10 0 -5 4 -10 9
-10 13 0 35 29 27 37 -3 3 -6 1 -6 -5z"/>
<path d="M2770 680 c0 -4 7 -11 16 -14 22 -9 26 -8 22 6 -5 13 -38 20 -38 8z"/>
<path d="M2840 680 c0 -13 11 -13 30 0 12 8 11 10 -7 10 -13 0 -23 -4 -23 -10z"/>
<path d="M2911 655 c1 -17 18 -51 18 -36 1 7 7 11 15 8 10 -4 13 -1 9 8 -3 8
-10 12 -15 9 -6 -4 -14 0 -19 7 -5 8 -8 10 -8 4z"/>
<path d="M2658 643 c-24 -6 -23 -19 2 -19 11 0 20 6 20 13 0 7 -1 12 -2 12 -2
-1 -11 -3 -20 -6z"/>
<path d="M2820 615 c0 -14 2 -25 4 -25 2 0 6 11 8 25 3 14 1 25 -3 25 -5 0 -9
-11 -9 -25z"/>
<path d="M2850 623 c0 -17 17 -25 23 -11 2 7 8 10 12 6 10 -10 -13 -38 -31
-38 -15 0 -36 -34 -27 -44 11 -11 21 -6 19 10 0 9 5 19 13 22 10 3 12 0 8 -11
-3 -8 0 -18 8 -21 9 -3 12 0 8 10 -6 16 32 20 42 4 10 -17 25 -11 18 7 -5 13
-2 15 11 10 10 -4 15 -3 11 3 -3 5 -21 9 -38 7 -30 -2 -32 0 -29 29 3 29 0 32
-22 30 -15 0 -26 -6 -26 -13z"/>
<path d="M2703 623 c-10 -3 -10 -9 0 -24 15 -25 28 -24 24 1 -4 24 -9 29 -24
23z"/>
<path d="M2665 598 c-4 -10 -11 -15 -16 -12 -5 3 -9 -2 -9 -10 0 -9 4 -16 9
-16 14 0 33 28 28 42 -3 9 -7 8 -12 -4z"/>
<path d="M2516 592 c-14 -13 -4 -23 17 -18 12 3 16 3 10 0 -23 -10 -14 -21 17
-20 36 1 37 6 8 26 -26 16 -44 21 -52 12z"/>
<path d="M2150 580 c0 -5 5 -10 11 -10 5 0 7 5 4 10 -3 6 -8 10 -11 10 -2 0
-4 -4 -4 -10z"/>
<path d="M2743 570 c1 -11 2 -20 4 -20 1 0 7 9 13 20 8 16 8 20 -4 20 -9 0
-14 -8 -13 -20z"/>
<path d="M2625 558 c3 -14 8 -33 11 -42 4 -11 2 -15 -8 -11 -9 4 -14 -2 -14
-15 0 -11 5 -19 11 -17 14 5 36 50 27 57 -4 3 -13 16 -20 30 l-12 25 5 -27z"/>
<path d="M2680 564 c0 -17 22 -14 28 4 2 7 -3 12 -12 12 -9 0 -16 -7 -16 -16z"/>
<path d="M2785 570 c-3 -5 1 -10 10 -10 9 0 13 5 10 10 -3 6 -8 10 -10 10 -2
0 -7 -4 -10 -10z"/>
<path d="M2707 550 c-9 -11 -13 -20 -8 -20 11 0 35 29 29 35 -2 2 -12 -4 -21
-15z"/>
<path d="M0 544 c0 -10 35 -34 48 -34 15 1 15 2 -1 11 -9 6 -15 13 -13 17 3 4
-4 8 -15 8 -10 0 -19 -1 -19 -2z"/>
<path d="M2510 541 c0 -5 7 -12 16 -15 24 -9 28 -7 14 9 -14 17 -30 20 -30 6z"/>
<path d="M2770 533 c0 -13 8 -18 30 -19 17 -1 29 0 28 0 -2 1 -15 10 -30 19
-27 17 -28 17 -28 0z"/>
<path d="M2719 513 c-13 -17 -13 -17 6 -3 11 8 22 16 24 17 2 2 0 3 -6 3 -6 0
-17 -8 -24 -17z"/>
<path d="M2670 512 c0 -12 19 -26 26 -19 2 2 -2 10 -11 17 -9 8 -15 8 -15 2z"/>
<path d="M2510 505 c-8 -45 -8 -47 2 -37 5 5 8 18 5 28 -3 11 -6 15 -7 9z"/>
<path d="M2871 501 c-11 -7 -10 -11 5 -20 18 -10 18 -10 -3 -11 -24 0 -27 -7
-17 -34 10 -25 23 -19 37 17 20 46 10 68 -22 48z"/>
<path d="M7 493 c-12 -12 -7 -22 8 -17 8 4 15 10 15 15 0 11 -14 12 -23 2z"/>
<path d="M2570 490 c0 -5 7 -10 16 -10 8 0 12 5 9 10 -3 6 -10 10 -16 10 -5 0
-9 -4 -9 -10z"/>
<path d="M2775 490 c-3 -6 1 -7 9 -4 18 7 21 14 7 14 -6 0 -13 -4 -16 -10z"/>
<path d="M2940 490 c0 -5 5 -10 10 -10 6 0 10 5 10 10 0 6 -4 10 -10 10 -5 0
-10 -4 -10 -10z"/>
<path d="M2815 480 c-3 -5 -1 -10 4 -10 6 0 11 5 11 10 0 6 -2 10 -4 10 -3 0
-8 -4 -11 -10z"/>
<path d="M30 465 c-7 -8 -9 -15 -6 -15 4 0 14 7 22 15 9 8 11 15 6 15 -5 0
-15 -7 -22 -15z"/>
<path d="M2570 461 c0 -7 -5 -11 -12 -9 -12 4 -73 -50 -65 -58 7 -7 37 7 37
17 0 5 5 9 10 9 6 0 10 -7 10 -15 0 -8 -5 -15 -12 -15 -6 0 -9 -2 -6 -5 3 -3
19 1 37 8 32 14 32 27 -1 27 -23 0 -23 9 -1 26 10 7 15 16 10 20 -4 4 -7 2 -7
-5z"/>
<path d="M2640 459 c0 -6 -9 -7 -21 -4 -16 5 -19 4 -14 -5 5 -8 21 -10 47 -6
41 7 68 -8 60 -32 -2 -6 1 -12 7 -12 6 0 11 7 11 16 0 8 5 12 10 9 6 -3 10 -2
10 4 0 14 -28 27 -72 34 -23 3 -38 2 -38 -4z"/>
<path d="M3037 459 c7 -7 15 -10 18 -7 3 3 -2 9 -12 12 -14 6 -15 5 -6 -5z"/>
<path d="M90 450 c13 -8 13 -10 1 -10 -12 0 -12 -3 -3 -12 10 -10 15 -10 22 2
9 14 -4 30 -25 30 -5 0 -3 -5 5 -10z"/>
<path d="M245 440 c3 -5 8 -10 11 -10 2 0 4 5 4 10 0 6 -5 10 -11 10 -5 0 -7
-4 -4 -10z"/>
<path d="M2615 420 c-3 -5 3 -10 15 -10 12 0 18 5 15 10 -3 6 -10 10 -15 10
-5 0 -12 -4 -15 -10z"/>
<path d="M2670 418 c0 -10 -6 -18 -14 -18 -9 0 -12 -8 -8 -25 2 -14 -1 -32 -8
-40 -6 -8 -9 -19 -5 -24 3 -7 0 -8 -9 -5 -11 4 -16 0 -16 -11 0 -12 5 -15 20
-10 11 4 20 2 20 -4 0 -6 -5 -11 -11 -11 -8 0 -8 -5 1 -15 8 -10 9 -15 2 -15
-6 0 -9 -7 -6 -15 9 -22 34 -18 34 5 0 11 5 20 10 20 6 0 10 7 10 15 0 8 -4
14 -9 13 -9 -3 -11 2 -11 23 0 8 4 8 15 -1 16 -14 35 -5 35 16 0 8 7 17 16 21
13 5 13 8 2 15 -10 8 -10 11 0 15 6 2 10 9 6 14 -3 5 -15 3 -27 -6 -12 -8 -24
-15 -28 -15 -12 0 -20 33 -10 39 6 4 6 12 1 21 -8 13 -10 12 -10 -2z m6 -84
c-3 -8 -11 -14 -17 -14 -9 0 -9 3 0 14 6 7 9 22 5 32 -5 18 -5 18 6 1 6 -10 9
-25 6 -33z m38 9 c-5 -5 -12 -12 -16 -18 -4 -6 -8 -2 -8 8 0 9 7 17 17 17 9 0
12 -3 7 -7z"/>
<path d="M217 409 c7 -7 15 -10 18 -7 3 3 -2 9 -12 12 -14 6 -15 5 -6 -5z"/>
<path d="M0 400 c0 -6 7 -10 15 -10 8 0 15 2 15 4 0 2 -7 6 -15 10 -8 3 -15 1
-15 -4z"/>
<path d="M70 400 c0 -5 6 -10 13 -10 8 0 7 -4 -3 -10 -13 -9 -13 -10 0 -10 8
0 25 -3 38 -6 13 -4 22 -2 22 5 0 6 -9 11 -19 11 -10 0 -21 7 -25 15 -6 17
-26 21 -26 5z"/>
<path d="M2755 400 c3 -5 13 -10 21 -10 8 0 14 5 14 10 0 6 -9 10 -21 10 -11
0 -17 -4 -14 -10z"/>
<path d="M3163 396 c-24 -11 -31 -50 -13 -61 6 -3 7 1 4 10 -4 10 2 24 15 36
17 16 28 33 19 28 -2 -1 -13 -6 -25 -13z"/>
<path d="M495 389 c-11 -16 -1 -19 13 -3 7 8 8 14 3 14 -5 0 -13 -5 -16 -11z"/>
<path d="M370 380 c0 -5 5 -10 10 -10 6 0 10 5 10 10 0 6 -4 10 -10 10 -5 0
-10 -4 -10 -10z"/>
<path d="M2607 366 c3 -14 -1 -27 -9 -31 -7 -5 -10 -5 -6 0 9 10 -9 45 -23 45
-6 0 -8 -7 -5 -16 5 -14 4 -15 -9 -4 -25 20 -27 6 -4 -23 25 -32 43 -34 71 -7
12 11 16 20 10 20 -7 0 -12 6 -12 14 0 8 -4 17 -9 20 -4 3 -6 -5 -4 -18z"/>
<path d="M3106 375 c-3 -9 0 -15 9 -15 16 0 20 16 6 24 -5 3 -11 -1 -15 -9z"/>
<path d="M340 370 c0 -5 5 -10 11 -10 5 0 7 5 4 10 -3 6 -8 10 -11 10 -2 0 -4
-4 -4 -10z"/>
<path d="M424 356 c-9 -20 -9 -23 2 -19 8 3 14 14 14 24 0 25 -3 24 -16 -5z"/>
<path d="M2763 361 c1 -11 6 -17 14 -14 10 4 11 9 2 19 -15 19 -18 18 -16 -5z"/>
<path d="M3196 354 c-10 -38 0 -41 12 -5 6 17 7 31 3 31 -5 0 -12 -12 -15 -26z"/>
<path d="M0 355 c0 -8 9 -10 25 -7 18 3 25 0 25 -11 0 -8 6 -18 13 -20 7 -3 5
-6 -5 -6 -22 -1 -24 -21 -3 -21 8 0 15 -4 15 -10 0 -5 5 -10 10 -10 6 0 10 11
10 25 0 14 5 25 10 25 6 0 8 -13 5 -30 -3 -17 -1 -30 5 -30 5 0 10 10 10 23 0
15 3 18 8 9 12 -17 47 22 39 43 -8 19 -37 20 -37 0 0 -16 -24 -10 -51 13 -22
19 -79 24 -79 7z m160 -34 c0 -6 -4 -13 -10 -16 -5 -3 -10 1 -10 9 0 9 5 16
10 16 6 0 10 -4 10 -9z"/>
<path d="M384 355 c-10 -8 -14 -14 -9 -15 15 0 40 18 34 24 -3 3 -14 -1 -25
-9z"/>
<path d="M3165 361 c-3 -5 -1 -12 5 -16 5 -3 10 1 10 9 0 18 -6 21 -15 7z"/>
<path d="M516 333 c-6 -14 -5 -15 5 -6 7 7 10 15 7 18 -3 3 -9 -2 -12 -12z"/>
<path d="M2914 339 c-4 -7 -3 -9 4 -5 5 3 13 0 15 -6 4 -9 6 -10 6 -1 1 17
-16 25 -25 12z"/>
<path d="M3026 333 c-4 -13 -14 -23 -22 -23 -8 0 -14 -5 -14 -11 0 -6 7 -8 16
-5 9 4 22 2 29 -4 20 -16 25 1 11 35 -12 29 -13 29 -20 8z"/>
<path d="M195 330 c-3 -5 -1 -10 4 -10 6 0 11 5 11 10 0 6 -2 10 -4 10 -3 0
-8 -4 -11 -10z"/>
<path d="M255 328 c-5 -12 -18 -18 -40 -18 -32 0 -61 -19 -33 -21 7 -1 2 -4
-12 -8 -14 -4 -29 -17 -35 -29 -11 -24 -55 -31 -55 -8 0 7 -14 16 -31 20 -25
5 -30 10 -26 25 3 14 1 18 -9 14 -24 -9 -16 -29 19 -46 30 -16 30 -16 5 -11
-17 4 -28 2 -28 -5 0 -6 5 -11 11 -11 6 0 8 -8 4 -19 -4 -13 2 -27 18 -43 13
-13 22 -29 20 -35 -6 -16 17 -27 30 -14 6 6 25 11 41 11 21 0 27 -3 17 -9 -7
-5 -21 -6 -31 -4 -10 3 -20 -2 -24 -12 -5 -13 -1 -15 17 -10 17 5 19 4 7 -4
-13 -9 -13 -12 3 -28 15 -15 19 -16 27 -3 5 8 7 17 4 21 -2 4 6 4 18 1 19 -5
20 -7 6 -10 -10 -2 -18 -7 -18 -12 0 -12 29 -40 43 -41 7 0 21 -3 32 -6 35
-10 240 -12 224 -2 -13 8 -6 13 14 10 4 0 7 4 7 10 0 7 -12 9 -33 5 -31 -6
-33 -4 -32 21 0 16 6 32 13 36 14 10 16 47 2 47 -5 0 -10 11 -10 25 0 16 -10
31 -27 42 -16 10 -31 21 -34 26 -4 5 -9 4 -13 -1 -3 -6 -1 -14 5 -18 8 -4 7
-9 -2 -15 -11 -7 -9 -10 9 -15 27 -8 27 -13 5 -30 -23 -17 -30 -17 -30 1 0 8
5 15 11 15 6 0 2 7 -8 15 -14 11 -16 15 -5 15 12 0 12 2 -1 10 -11 7 -17 5
-22 -8 -4 -9 -7 -11 -7 -4 -1 9 -7 8 -25 -3 -28 -19 -66 -6 -66 21 0 11 -6 13
-20 9 -11 -4 -20 -2 -20 4 0 6 6 11 14 11 25 0 46 -12 46 -26 0 -8 8 -14 18
-14 15 0 15 2 2 11 -12 8 -10 9 8 4 13 -4 22 -2 22 4 0 6 11 11 25 11 22 0 25
4 23 29 -2 32 -18 32 -18 0 0 -22 -6 -23 -39 -5 -14 8 -30 12 -36 9 -7 -2 -18
4 -26 13 -13 16 -12 17 9 12 12 -4 22 -2 22 4 0 6 6 6 15 -2 14 -11 35 -6 35
9 0 4 -6 16 -14 27 -14 18 -15 18 -21 2z m-88 -83 c-19 -19 -27 -19 -27 -1 0
8 8 16 18 18 24 6 27 1 9 -17z m103 -5 c0 -5 -7 -7 -15 -4 -8 4 -15 8 -15 10
0 2 7 4 15 4 8 0 15 -4 15 -10z m-209 -23 c-1 -4 -1 -14 -1 -22 0 -9 -6 -12
-15 -9 -21 8 -19 24 3 24 15 0 15 2 2 11 -10 7 -11 9 -2 7 8 -2 13 -7 13 -11z
m93 -12 c-4 -10 -14 -13 -30 -9 -19 5 -23 3 -19 -9 6 -14 -22 -33 -33 -22 -3
3 0 5 7 5 8 0 10 7 6 21 -5 14 -3 19 3 15 6 -3 13 -2 17 4 3 5 17 10 30 10 18
0 23 -4 19 -15z m76 -34 c0 -5 -9 -11 -20 -14 -13 -3 -20 0 -20 9 0 8 9 14 20
14 11 0 20 -4 20 -9z m167 -23 c-3 -8 -6 -5 -6 6 -1 11 2 17 5 13 3 -3 4 -12
1 -19z m-297 -2 c0 -3 -4 -8 -10 -11 -5 -3 -10 -1 -10 4 0 6 5 11 10 11 6 0
10 -2 10 -4z m153 -53 c-7 -19 -27 -16 -48 7 -15 17 -16 20 -3 20 9 0 19 -7
22 -16 8 -21 27 -8 20 14 -5 14 -4 14 4 3 6 -8 8 -20 5 -28z m-76 11 c-3 -3
-12 -4 -19 -1 -8 3 -5 6 6 6 11 1 17 -2 13 -5z m223 -4 c0 -5 -2 -10 -4 -10
-3 0 -8 5 -11 10 -3 6 -1 10 4 10 6 0 11 -4 11 -10z m-186 -36 c3 -8 2 -12 -4
-9 -6 3 -10 10 -10 16 0 14 7 11 14 -7z"/>
<path d="M2412 330 c0 -8 4 -26 8 -40 6 -20 8 -21 8 -5 0 11 -3 29 -8 40 -5
12 -8 14 -8 5z"/>
<path d="M2452 325 c0 -11 4 -33 8 -50 7 -27 8 -27 9 -6 0 14 9 33 19 44 16
19 16 20 -5 15 -12 -3 -24 -1 -27 6 -2 6 -4 2 -4 -9z"/>
<path d="M2824 328 c-4 -6 -3 -8 4 -4 5 3 13 0 15 -6 3 -8 6 -6 6 5 1 19 -14
23 -25 5z"/>
<path d="M377 314 c-9 -24 1 -57 14 -48 5 3 9 -2 9 -11 0 -11 -5 -15 -14 -12
-10 4 -13 1 -9 -9 8 -22 16 -17 40 25 21 37 16 47 -14 28 -8 -5 -13 2 -15 20
-3 26 -4 26 -11 7z"/>
<path d="M430 326 c0 -2 7 -7 16 -10 8 -3 12 -2 9 4 -6 10 -25 14 -25 6z"/>
<path d="M2874 309 c0 -22 12 -25 19 -5 3 8 0 16 -6 19 -7 3 -13 -3 -13 -14z"/>
<path d="M320 316 c0 -2 7 -6 15 -10 8 -3 15 -1 15 4 0 6 -7 10 -15 10 -8 0
-15 -2 -15 -4z"/>
<path d="M2741 304 c0 -11 3 -14 6 -6 3 7 2 16 -1 19 -3 4 -6 -2 -5 -13z"/>
<path d="M3142 283 c-1 -23 1 -34 7 -28 13 14 18 58 6 62 -5 1 -11 -14 -13
-34z"/>
<path d="M2820 301 c0 -5 7 -12 16 -15 14 -5 15 -4 4 9 -14 17 -20 19 -20 6z"/>
<path d="M2955 300 c-3 -5 1 -10 10 -10 9 0 13 5 10 10 -3 6 -8 10 -10 10 -2
0 -7 -4 -10 -10z"/>
<path d="M3181 301 c-10 -6 -11 -23 -7 -62 5 -37 4 -49 -3 -39 -5 8 -8 17 -5
21 2 4 0 10 -6 14 -5 3 -10 -3 -10 -14 0 -13 -6 -21 -17 -21 -12 0 -14 3 -6 8
7 4 9 13 4 21 -6 9 -11 10 -15 2 -4 -6 -4 -11 1 -12 4 -1 -3 -5 -17 -9 -24 -8
-24 -8 -2 -9 12 -1 22 -6 22 -12 0 -6 -9 -8 -20 -4 -11 4 -20 2 -20 -4 0 -6
-4 -11 -10 -11 -5 0 -7 7 -4 15 5 11 2 13 -10 9 -19 -7 -22 -34 -3 -35 6 0 -6
-6 -28 -14 -28 -9 -33 -13 -17 -14 33 -2 27 -32 -13 -65 -37 -31 -49 -64 -17
-48 9 5 23 7 30 5 6 -3 12 0 12 7 0 6 4 9 10 5 23 -14 122 70 126 109 1 14 -2
26 -7 26 -5 0 -9 -12 -10 -27 0 -27 -1 -27 -9 -5 -5 12 -12 22 -15 22 -4 0 -4
-4 -1 -9 3 -5 -1 -12 -9 -15 -11 -4 -15 0 -13 12 2 9 17 22 33 28 26 10 31 9
42 -10 11 -20 12 -20 18 9 4 17 10 39 15 50 9 20 8 70 -1 79 -2 3 -11 1 -18
-3z m19 -57 c0 -8 -4 -12 -10 -9 -5 3 -10 10 -10 16 0 5 5 9 10 9 6 0 10 -7
10 -16z m-120 -144 c12 -7 10 -9 -8 -7 -12 0 -22 5 -22 9 0 11 12 10 30 -2z"/>
<path d="M2486 274 c1 -14 5 -28 8 -31 9 -9 19 25 12 42 -9 25 -23 17 -20 -11z"/>
<path d="M2771 274 c0 -11 3 -14 6 -6 3 7 2 16 -1 19 -3 4 -6 -2 -5 -13z"/>
<path d="M2700 264 c0 -8 5 -12 10 -9 6 3 10 10 10 16 0 5 -4 9 -10 9 -5 0
-10 -7 -10 -16z"/>
<path d="M2960 268 c0 -9 -6 -19 -12 -21 -10 -4 -10 -6 0 -6 14 -1 28 26 18
36 -3 4 -6 -1 -6 -9z"/>
<path d="M2590 260 c0 -5 5 -10 11 -10 5 0 7 5 4 10 -3 6 -8 10 -11 10 -2 0
-4 -4 -4 -10z"/>
<path d="M3001 256 c-15 -18 -3 -40 22 -42 21 -2 20 -3 3 30 -11 22 -15 24
-25 12z"/>
<path d="M3086 254 c-4 -9 -4 -19 -1 -22 2 -3 7 3 11 12 4 9 4 19 1 22 -2 3
-7 -3 -11 -12z"/>
<path d="M2738 253 c7 -3 16 -2 19 1 4 3 -2 6 -13 5 -11 0 -14 -3 -6 -6z"/>
<path d="M2832 251 c-10 -6 -10 -10 2 -20 12 -10 15 -9 13 8 -1 12 -1 21 -2
21 0 0 -6 -4 -13 -9z"/>
<path d="M2902 240 c0 -14 2 -19 5 -12 2 6 2 18 0 25 -3 6 -5 1 -5 -13z"/>
<path d="M600 230 c0 -11 2 -20 4 -20 2 0 6 9 9 20 3 11 1 20 -4 20 -5 0 -9
-9 -9 -20z"/>
<path d="M2790 241 c0 -5 5 -13 10 -16 6 -3 10 -2 10 4 0 5 -4 13 -10 16 -5 3
-10 2 -10 -4z"/>
<path d="M420 230 c-8 -5 -12 -12 -9 -15 4 -3 12 1 19 10 14 17 11 19 -10 5z"/>
<path d="M2720 230 c0 -5 5 -10 10 -10 6 0 10 5 10 10 0 6 -4 10 -10 10 -5 0
-10 -4 -10 -10z"/>
<path d="M2765 221 c-4 -13 -13 -18 -25 -16 -27 5 -26 -12 1 -20 24 -8 24 -8
33 28 7 31 1 37 -9 8z"/>
<path d="M2686 222 c-3 -6 -1 -14 5 -17 15 -10 25 3 12 16 -7 7 -13 7 -17 1z"/>
<path d="M440 210 c0 -5 5 -10 10 -10 6 0 10 5 10 10 0 6 -4 10 -10 10 -5 0
-10 -4 -10 -10z"/>
<path d="M2934 186 c-3 -19 -3 -39 1 -45 3 -6 2 -11 -3 -11 -11 0 -34 -47 -38
-77 -1 -12 3 -24 11 -26 9 -4 12 4 11 26 -3 44 3 57 26 57 10 0 16 4 13 10 -3
6 1 7 9 4 11 -4 16 0 16 10 0 10 -8 16 -21 16 -16 0 -19 3 -11 13 12 14 12 57
0 57 -4 0 -10 -15 -14 -34z"/>
<path d="M2971 207 c-1 -11 7 -21 19 -24 17 -5 18 -8 8 -21 -11 -13 -10 -14 1
-11 24 8 25 30 3 36 -12 3 -23 12 -25 22 -4 13 -5 13 -6 -2z"/>
<path d="M2620 202 c0 -7 5 -12 11 -12 8 0 7 -6 -2 -17 -13 -15 -11 -16 16 -9
28 7 29 7 12 -12 -18 -20 -23 -42 -8 -42 5 0 13 9 16 20 3 11 11 20 17 20 5 0
7 7 4 16 -5 12 -2 15 9 10 10 -3 13 -2 10 5 -4 5 -16 7 -27 4 -12 -4 -27 0
-39 11 -11 10 -19 12 -19 6z"/>
<path d="M2830 201 c0 -5 5 -13 10 -16 6 -3 10 -2 10 4 0 5 -4 13 -10 16 -5 3
-10 2 -10 -4z"/>
<path d="M2466 185 c-3 -9 1 -18 10 -22 19 -7 26 0 18 21 -8 20 -20 21 -28 1z"/>
<path d="M2880 190 c18 -12 30 -13 30 -2 0 4 -10 9 -22 9 -18 2 -20 0 -8 -7z"/>
<path d="M533 163 c-4 -10 -11 -21 -17 -25 -7 -5 -7 -8 2 -8 6 0 12 -7 12 -16
0 -14 -3 -14 -15 -4 -9 7 -18 10 -22 6 -3 -3 -15 1 -25 11 -10 9 -18 11 -18 6
0 -17 26 -34 44 -27 18 7 35 -24 18 -35 -6 -3 -12 -20 -14 -36 -2 -25 1 -31
20 -33 18 -3 22 1 22 24 0 17 11 39 27 57 17 17 21 26 11 22 -12 -5 -18 0 -21
17 -3 15 -5 11 -6 -14 0 -20 -6 -40 -11 -43 -14 -9 0 78 14 87 7 5 7 8 -2 8
-7 0 -10 5 -7 10 3 6 4 10 0 10 -3 0 -9 -8 -12 -17z m-3 -128 c0 -8 -4 -15
-10 -15 -5 0 -10 7 -10 15 0 8 5 15 10 15 6 0 10 -7 10 -15z"/>
<path d="M2785 170 c-3 -5 -19 -7 -35 -3 -19 3 -30 1 -30 -6 0 -6 9 -11 19
-11 25 0 36 -16 16 -24 -8 -3 -15 0 -15 6 0 7 -5 6 -15 -2 -13 -11 -13 -15 -3
-21 8 -6 9 -9 2 -9 -6 0 -17 7 -24 15 -9 10 -9 15 -1 15 6 0 11 5 11 11 0 8
-5 8 -15 -1 -8 -7 -15 -19 -15 -26 0 -8 -7 -14 -15 -14 -10 0 -15 -10 -15 -29
0 -33 16 -49 33 -32 15 15 24 14 30 -3 4 -10 1 -13 -9 -9 -8 3 -14 -1 -14 -11
0 -13 12 -15 79 -13 44 1 84 7 88 11 4 5 0 6 -9 3 -22 -8 -23 1 -1 25 30 33 5
31 -27 -2 -24 -24 -34 -29 -40 -20 -4 7 -13 9 -19 6 -18 -11 -13 5 7 21 12 10
14 16 5 19 -7 3 -13 10 -13 15 0 14 28 11 33 -3 3 -7 5 -4 4 7 0 11 3 31 8 45
7 22 6 23 -9 11 -21 -17 -21 2 0 23 8 9 11 16 5 16 -5 0 -13 -4 -16 -10z m-45
-84 c0 -2 -7 -6 -15 -10 -8 -3 -15 -1 -15 4 0 6 7 10 15 10 8 0 15 -2 15 -4z"/>
<path d="M582 150 c0 -14 2 -19 5 -12 2 6 2 18 0 25 -3 6 -5 1 -5 -13z"/>
<path d="M2830 160 c0 -5 5 -10 11 -10 5 0 7 5 4 10 -3 6 -8 10 -11 10 -2 0
-4 -4 -4 -10z"/>
<path d="M2870 156 c0 -19 17 -29 25 -16 3 5 1 10 -5 10 -6 0 -8 5 -5 10 3 6
1 10 -4 10 -6 0 -11 -6 -11 -14z"/>
<path d="M475 140 c3 -5 8 -10 11 -10 2 0 4 5 4 10 0 6 -5 10 -11 10 -5 0 -7
-4 -4 -10z"/>
<path d="M2827 133 c-2 -5 -4 -24 -4 -43 -1 -19 1 -26 4 -15 3 11 12 25 21 31
8 6 12 16 8 22 -8 14 -23 16 -29 5z"/>
<path d="M2476 112 c-9 -15 12 -35 29 -28 15 5 15 8 1 21 -17 17 -23 18 -30 7z"/>
<path d="M2875 109 c-11 -17 1 -21 15 -4 8 9 8 15 2 15 -6 0 -14 -5 -17 -11z"/>
<path d="M2990 109 c0 -5 5 -7 10 -4 6 3 10 8 10 11 0 2 -4 4 -10 4 -5 0 -10
-5 -10 -11z"/>
<path d="M2935 90 c-4 -6 -3 -10 2 -9 20 3 25 -2 13 -16 -9 -11 -9 -15 -1 -15
6 0 14 7 17 15 4 8 10 12 15 9 5 -3 9 -1 9 4 0 19 -45 28 -55 12z"/>
<path d="M2936 21 c-4 -7 -5 -15 -2 -18 9 -9 19 4 14 18 -4 11 -6 11 -12 0z"/>
</g>
</svg>
