<?xml version="1.0" standalone="no"?>
<!DOCTYPE svg PUBLIC "-//W3C//DTD SVG 20010904//EN"
 "http://www.w3.org/TR/2001/REC-SVG-20010904/DTD/svg10.dtd">
<svg version="1.0" xmlns="http://www.w3.org/2000/svg"
 width="512.000000pt" height="512.000000pt" viewBox="0 0 512.000000 512.000000"
 preserveAspectRatio="xMidYMid meet">
<metadata>
Created by potrace 1.11, written by Peter Selinger 2001-2013
</metadata>
<g transform="translate(0.000000,512.000000) scale(0.100000,-0.100000)"
fill="#000000" stroke="none">
<path d="M960 4572 c-83 -9 -135 -32 -300 -130 -70 -41 -110 -65 -200 -115
-154 -86 -228 -152 -279 -247 -57 -107 -76 -203 -75 -380 1 -241 84 -518 233
-785 35 -61 146 -225 188 -275 67 -81 207 -215 283 -272 97 -72 372 -233 475
-277 44 -19 99 -48 122 -65 22 -17 54 -38 70 -47 15 -9 70 -42 122 -73 51 -31
94 -56 96 -56 2 0 254 -146 380 -220 347 -204 491 -257 791 -291 l102 -12 70
-96 c107 -148 246 -285 390 -385 103 -72 472 -275 472 -260 0 2 12 -1 28 -7
49 -20 85 -24 194 -24 l106 0 96 49 c56 28 93 53 89 59 -3 6 -1 7 5 3 6 -4 30
5 52 19 23 14 58 35 78 47 283 159 338 203 397 320 99 200 93 512 -17 826 -99
283 -252 527 -458 732 -115 115 -170 158 -320 247 -63 37 -128 78 -145 89 -37
26 -309 185 -728 425 -268 153 -407 207 -627 240 -36 5 -72 12 -81 14 -12 4
-208 13 -315 15 -6 0 -33 37 -59 83 -125 214 -325 436 -499 551 -62 41 -258
156 -343 202 -134 71 -286 109 -393 96z m115 -810 c210 -122 265 -168 383
-323 10 -13 4 -22 -44 -54 -82 -56 -181 -169 -217 -246 l-31 -66 -34 41 c-90
107 -180 271 -225 406 -33 99 -38 125 -44 253 l-5 109 43 -23 c24 -12 103 -56
174 -97z m1585 -938 c46 -14 112 -40 144 -56 58 -29 60 -31 41 -47 -65 -54
-133 -180 -154 -286 -18 -94 -19 -106 -20 -184 -1 -72 -1 -73 -25 -67 -13 3
-57 25 -98 49 -82 49 -148 87 -226 130 l-53 29 35 36 c76 78 127 209 143 371
l6 64 61 -7 c33 -3 99 -18 146 -32z m828 -459 c98 -52 167 -94 170 -103 2 -6
-16 -22 -40 -35 -50 -29 -168 -80 -174 -74 -15 14 -23 237 -9 237 3 0 27 -11
53 -25z m703 -700 c17 -43 35 -105 56 -190 3 -11 7 -68 10 -128 5 -102 4 -107
-13 -100 -41 15 -394 224 -394 233 0 4 22 19 49 34 69 37 167 112 214 164 22
23 44 41 50 39 5 -1 18 -25 28 -52z"/>
</g>
</svg>
